<ttFont>
<head>
    <!-- Most of this table will be recalculated by the compiler -->
    <tableVersion value="1.0"/>
    <fontRevision value="0.0"/>
    <checkSumAdjustment value="0xcee92d38"/>
    <magicNumber value="0x5f0f3cf5"/>
    <flags value="00000000 00000011"/>
    <unitsPerEm value="2048"/>
    <created value="Thu May  4 15:31:54 2017"/>
    <modified value="Thu May  4 22:31:57 2017"/>
    <xMin value="-31"/>
    <yMin value="-594"/>
    <xMax value="1686"/>
    <yMax value="2288"/>
<macStyle value="00000000 00000010"/>
    <lowestRecPPEM value="3"/>
    <fontDirectionHint value="2"/>
    <indexToLocFormat value="0"/>
    <glyphDataFormat value="0"/>
  </head>
          <CharString index="0">
            685 -17 rmoveto
            255 168 147 266 48 hvcurveto
            -25 callgsubr
            -25 -146 rlineto
            -7 -42 -4 -44 -43 47 callgsubr
            72 994 rmoveto
            185 121 -124 -188 -32 -2 -35 -5 -31 hvcurveto
            -24 -137 5 callgsubr
            35 3 32 7 44 hvcurveto
            23 132 rlineto
            196 34 126 122 170 hhcurveto
            return
          </CharString>
          <CharString index="1">
            793 979 rmoveto
            186 114 -136 -192 -24 hvcurveto
            -5 -39 rlineto
            -623 hlineto
            13 76 rlineto
            179 31 131 112 177 hhcurveto
            333 -713 rmoveto
            23 callgsubr
            -20 -139 rlineto
            -11 -76 -4 -40 -34 vvcurveto
            -257 157 -156 260 210 186 125 159 25 vhcurveto
            return
          </CharString>
          <CharString index="2">
            rmoveto
            -46 callsubr
            84 callgsubr
            return
          </CharString>
          <CharString index="3">
            rmoveto
            -9 -58 -5 -47 -40 -77 callsubr
            175 991 rlineto
            -136 hlineto
            -173 -980 rlineto
            -223 -40 -151 -144 -194 hhcurveto
            -201 -132 138 211 27 5 51 7 41 hvcurveto
            155 879 rlineto
            -136 hlineto
            return
          </CharString>
          <CharString index="4">
            212 405 rmoveto
            -3 -9 -1 -13 -27 vvcurveto
            -221 209 -165 278 298 196 168 255 180 -88 99 -254 102 vhcurveto
            -97 39 rlineto
            -189 75 -68 73 125 vvcurveto
            153 135 109 190 179 127 -106 -148 -17 0 -4 -1 -2 vhcurveto
            138 hlineto
            1 7 2 25 9 vvcurveto
            210 -186 151 -258 -279 -191 -160 -235 -180 98 -112 244 -97 vhcurveto
            83 -33 rlineto
            204 -81 68 -70 -125 vvcurveto
            -168 -142 -117 -204 -205 -148 117 161 6 1 10 1 16 vhcurveto
            return
          </CharString>
          <CharString index="5">
            278 49 146 154 208 96 callsubr
            -286 -50 -148 -164 -210 hhcurveto
            return
          </CharString>
          <CharString index="6">
            725 974 rmoveto
            178 123 -130 -190 -23 -4 -37 -6 -34 hvcurveto
            -22 -123 rlineto
            -188 -33 -135 -130 -163 hhcurveto
            -182 -111 122 201 26 6 61 6 34 hvcurveto
            15 81 rlineto
            204 37 126 126 165 hhcurveto
            -152 -1377 rmoveto
            272 160 138 273 48 hvcurveto
            187 1069 77 callgsubr
            -38 -225 rlineto
            -10 hlineto
            154 -28 -125 89 -187 hhcurveto
            -229 -174 -159 -251 -45 hvcurveto
            -20 -111 rlineto
            -7 -37 -6 -72 -44 vvcurveto
            -241 163 -178 221 149 124 73 117 50 vhcurveto
            10 hlineto
            -30 -168 rlineto
            -210 -38 -113 -104 -191 hhcurveto
            -159 -121 86 113 hvcurveto
            17 -131 -16 vlineto
            -180 170 -133 230 vhcurveto
            return
          </CharString>
          <CharString index="7">
            rlineto
            -102 callsubr
            return
          </CharString>
          <CharString index="8">
            rmoveto
            350 704 rlineto
            2 hlineto
            99 -704 rlineto
            -141 883 rmoveto
            -732 -1443 114 callgsubr
            220 442 rlineto
            527 hlineto
            62 -442 88 callsubr
            -217 -48 callgsubr
            return
          </CharString>
          <CharString index="9">
            1204 374 rmoveto
            61 345 rlineto
            -492 98 callgsubr
            356 hlineto
            -36 -203 rlineto
            -183 -32 -139 -115 -191 hhcurveto
            -219 -134 148 243 47 6 61 10 59 hvcurveto
            42 236 rlineto
            294 53 151 162 222 hhcurveto
            197 134 -124 -181 -13 -1 -16 -1 -20 134 callsubr
            3 28 2 25 17 vvcurveto
            245 -183 166 -270 -301 -209 -206 -361 -65 vhcurveto
            -46 -250 rlineto
            -9 -51 -6 -67 -57 vvcurveto
            -315 185 -198 293 264 201 161 245 43 vhcurveto
            return
          </CharString>
          <CharString index="10">
            -116 -19 -82 -90 -119 hhcurveto
            -131 -60 90 116 18 hvcurveto
            -114 hlineto
            -162 -31 113 -136 189 hhcurveto
            return
          </CharString>
          <CharString index="11">
            76 callsubr
            213 1207 32 callsubr
            20 118 rlineto
            -716 hlineto
            -20 -118 32 callsubr
            -213 -1207 76 callsubr
            -21 -19 callgsubr
            return
          </CharString>
          <CharString index="12">
            rmoveto
            21 118 119 callgsubr
            -21 -19 callgsubr
            return
          </CharString>
          <CharString index="13">
            131 hlineto
            113 638 rlineto
            204 36 139 135 174 hhcurveto
            151 97 -98 -154 -31 -5 -45 -8 -46 hvcurveto
            -107 -603 88 callsubr
            -61 callgsubr
            return
          </CharString>
          <CharString index="14">
            rmoveto
            123 callgsubr
            -372 hlineto
            -19 -106 rlineto
            244 65 callgsubr
            -222 hlineto
            -19 -106 rlineto
            695 103 callsubr
            -343 hlineto
            67 378 rlineto
            299 53 174 184 229 hhcurveto
            67 56 -10 -20 38 hvcurveto
            25 141 rlineto
            17 -37 -53 9 -62 hhcurveto
            -199 -151 -108 -193 -72 hvcurveto
            endchar
          </CharString>
          <CharString index="15">
            rmoveto
            4 11 4 10 5 10 rrcurveto
            182 79 139 100 176 hhcurveto
            230 141 -153 -280 -36 -2 -38 -4 -40 hvcurveto
            -609 31 callgsubr
            612 hlineto
            -8 -46 -10 -43 -11 -41 rrcurveto
            -291 -82 -167 -159 -228 hhcurveto
            -226 -126 124 223 -1 hvcurveto
            -138 -20 hlineto
            -286 183 -168 310 278 202 164 308 105 vhcurveto
            25 72 20 81 14 89 rrcurveto
            16 98 7 78 67 vvcurveto
            352 -179 197 -318 -248 -202 -145 -242 -92 vhcurveto
            -7 -18 -6 -18 -5 -18 rrcurveto
            endchar
          </CharString>
          <CharString index="16">
            rmoveto
            276 50 145 156 205 hhcurveto
            214 142 -164 -249 -59 -3 -44 -8 -41 hvcurveto
            -43 -242 rlineto
            -289 -51 -144 -161 -207 hhcurveto
            -217 -140 165 256 46 5 48 11 70 hvcurveto
            904 -7 rmoveto
            18 96 12 99 62 vvcurveto
            142 -33 117 -64 91 vhcurveto
            1 1 0 1 vvcurveto
            119 -12 94 61 45 119 14 36 6 31 28 156 rrcurveto
            -122 hlineto
            -23 -125 rlineto
            -108 -20 -56 -56 -88 -123 -81 87 -179 hhcurveto
            -282 -205 -202 -336 -60 99 callgsubr
            -50 -5 -65 -86 vvcurveto
            -317 190 -210 286 296 193 191 354 64 vhcurveto
            return
          </CharString>
          <CharString index="17">
            hlineto
            -85 callgsubr
            return
          </CharString>
          <CharString index="18">
            rmoveto
            -14 callsubr
            -116 -632 rlineto
            -5 -30 -3 -26 -22 vvcurveto
            -170 120 -92 220 65 101 6 6 31 vhcurveto
            20 112 rlineto
            -5 -33 -76 -3 -81 hhcurveto
            -159 -74 54 114 18 2 20 4 22 hvcurveto
            115 628 rlineto
            451 hlineto
            5 callsubr
            return
          </CharString>
          <CharString index="19">
            57 callgsubr
            171 971 rlineto
            -512 -21 callsubr
            65 callgsubr
            -379 hlineto
            -19 -106 rlineto
            return
          </CharString>
          <CharString index="20">
            792 33 callgsubr
            -364 hlineto
            -254 -1443 54 callsubr
            -27 -124 rmoveto
            274 132 -138 -288 -51 -4 -54 -6 -41 hvcurveto
            -25 -143 rlineto
            1 callsubr
            211 1195 rlineto
            return
          </CharString>
          <CharString index="21">
            84 callgsubr
            172 976 rlineto
            40 hlineto
            113 87 60 111 19 hvcurveto
            30 167 rlineto
            -123 hlineto
            -26 -143 rlineto
            -63 -11 -36 -31 -69 hhcurveto
            -137 -29 callgsubr
            -96 -54 callgsubr
            106 -99 callgsubr
            return
          </CharString>
          <CharString index="22">
            97 49 -27 -56 -50 -41 -27 -74 -38 -73 12 12 -34 hvcurveto
            -17 -95 rlineto
            -18 48 62 -11 52 hhcurveto
            135 101 83 106 98 -67 53 -123 hvcurveto
            return
          </CharString>
          <CharString index="23">
            rmoveto
            219 -162 144 -246 -259 -178 -158 -273 -47 vhcurveto
            -12 -73 -9 -55 -6 -43 rrcurveto
            -5 -43 -3 -30 -24 vvcurveto
            -258 162 -157 267 215 169 122 186 44 vhcurveto
            -132 hlineto
            -115 -39 -115 -75 -139 hhcurveto
            -191 -108 114 201 41 6 53 7 40 hvcurveto
            10 56 rlineto
            251 45 115 122 198 hhcurveto
            166 115 -101 -144 hvcurveto
            return
          </CharString>
          <CharString index="24">
            rmoveto
            -11 -63 5 callgsubr
            25 2 24 3 28 hvcurveto
            18 111 rmoveto
            10 55 25 callsubr
            -20 -1 -21 -2 -20 hvcurveto
            -784 -68 rmoveto
            -16 callsubr
            -25 callgsubr
            endchar
          </CharString>
          <CharString index="25">
            -120 -78 callgsubr
            return
          </CharString>
          <CharString index="26">
            701 hmoveto
            110 628 644 815 rlineto
            -164 hlineto
            -527 -684 rlineto
            -10 hlineto
            -299 684 rlineto
            -144 hlineto
            365 -816 -110 -627 rlineto
            return
          </CharString>
          <CharString index="27">
            rmoveto
            159 28 83 97 108 hhcurveto
            80 41 -49 -98 -29 -3 -29 -5 -28 hvcurveto
            -131 -744 122 callgsubr
            127 721 rlineto
            160 28 81 96 106 hhcurveto
            80 40 -49 -98 -30 -3 -28 -5 -29 hvcurveto
            -131 -743 122 callgsubr
            136 773 rlineto
            6 32 3 31 28 vvcurveto
            147 -79 84 -138 -102 -79 -55 -107 -50 vhcurveto
            -14 hlineto
            100 -8 -69 62 -104 hhcurveto
            -96 -82 -59 -103 -46 hvcurveto
            -14 hlineto
            25 144 rlineto
            -119 -43 callgsubr
            123 hlineto
            return
          </CharString>
          <CharString index="28">
            1267 257 rmoveto
            -120 hlineto
            -88 -17 -84 -67 -94 hhcurveto
            -116 -75 98 152 67 2 24 12 62 hvcurveto
            534 hlineto
            4 27 4 24 3 20 rrcurveto
            6 42 4 27 5 vvcurveto
            256 27 -109 177 -186 hhcurveto
            -116 -106 -64 -107 -62 hvcurveto
            -3 hlineto
            110 -35 -87 62 -119 hhcurveto
            -159 -123 -104 -155 -27 hvcurveto
            118 hlineto
            85 22 71 56 88 hhcurveto
            105 62 -76 -127 -21 -2 -24 -3 -20 hvcurveto
            -15 -86 -217 -19 rlineto
            -218 -19 -121 -121 -199 vvcurveto
            -156 107 -115 146 138 117 90 146 55 vhcurveto
            4 hlineto
            -143 17 105 -93 145 hhcurveto
            153 141 121 153 24 hvcurveto
            -56 355 rmoveto
            -419 hlineto
            12 68 rlineto
            179 32 90 108 118 hhcurveto
            108 69 -90 -141 -37 -4 -43 -6 -44 hvcurveto
            -821 -510 rmoveto
            -88 -64 72 100 116 84 86 124 11 hvcurveto
            205 19 -26 -149 rlineto
            -149 -26 -98 -106 -111 hhcurveto
            return
          </CharString>
          <CharString index="29">
            41 hlineto
            143 83 86 179 31 hvcurveto
            15 87 131 callgsubr
            -15 -88 rlineto
            -109 -19 -53 -55 -87 hhcurveto
            -136 hlineto
            -173 -980 rlineto
            -223 -40 -151 -144 -194 hhcurveto
            -201 -132 138 211 28 5 51 7 40 hvcurveto
            155 879 rlineto
            -136 hlineto
            -153 -867 rlineto
            -10 -62 -4 -45 -38 vvcurveto
            -279 184 -182 280 return
          </CharString>
          <CharString index="30">
            vvcurveto
            -279 184 -182 280 276 194 178 304 54 vhcurveto
            return
          </CharString>
          <CharString index="31">
            717 -18 rmoveto
            234 171 150 245 44 hvcurveto
            31 172 rlineto
            6 39 5 59 42 vvcurveto
            250 -148 156 -238 -146 -129 -82 -123 -49 vhcurveto
            -10 hlineto
            94 callsubr
            -124 84 callsubr
            128 hlineto
            103 589 rlineto
            6 hlineto
            -141 27 140 -101 170 hhcurveto
            122 vmoveto
            -178 -123 129 185 31 1 22 3 17 129 callsubr
            203 36 134 122 188 hhcurveto
            167 103 -116 -186 -32 -4 -48 -4 -26 hvcurveto
            -24 -137 rlineto
            -212 -37 -111 -110 -179 hhcurveto
            return
          </CharString>
          <CharString index="32">
            rmoveto
            68 -915 rlineto
            145 hlineto
            501 27 callsubr
            -213 -631 -202 -619 rlineto
            -9 hlineto
            -66 920 120 callsubr
            -384 -920 rlineto
            -8 1250 -120 -1443 149 hlineto
            393 915 rlineto
            return
          </CharString>
          <CharString index="33">
            -94 callgsubr
            endchar
          </CharString>
          <CharString index="34">
            rmoveto
            -124 hlineto
            -341 -297 rlineto
            165 hlineto
            226 202 58 callgsubr
            -202 rlineto
            145 hlineto
            return
          </CharString>
          <CharString index="35">
            rmoveto
            -133 hlineto
            -328 -914 rlineto
            -12 hlineto
            -39 914 118 callsubr
            -353 -914 rlineto
            -12 hlineto
            -23 914 122 callsubr
            48 -1077 80 callgsubr
            355 894 rlineto
            13 hlineto
            38 -894 80 callgsubr
            return
          </CharString>
          <CharString index="36">
            rmoveto
            -23 -127 4 callsubr
            53 4 47 9 55 hvcurveto
            22 124 rmoveto
            20 116 rlineto
            278 49 146 154 208 hhcurveto
            217 143 -165 -248 -35 -5 -64 -6 -36 hvcurveto
            -930 -100 rmoveto
            -11 -53 -5 -67 -81 vvcurveto
            -316 192 -211 288 297 194 190 355 64 vhcurveto
            -36 callsubr
            endchar
          </CharString>
          <CharString index="37">
            hhcurveto
            -186 -120 125 192 return
          </CharString>
          <CharString index="38">
            rmoveto
            -150 hlineto
            -520 -920 rlineto
            -6 hlineto
            -304 920 61 callgsubr
            363 -1079 rlineto
            -175 -109 -83 -63 -112 hhcurveto
            -28 -36 4 6 -18 hvcurveto
            -18 -135 rlineto
            -6 17 39 -4 34 hhcurveto
            186 113 93 286 163 hvcurveto
            return
          </CharString>
          <CharString index="39">
            rmoveto
            168 hlineto
            326 297 rlineto
            -184 hlineto
            return
          </CharString>
          <CharString index="40">
            rmoveto
            -92 callgsubr
            35 3 32 7 44 hvcurveto
            23 132 25 callsubr
            -32 -2 -35 -5 -31 hvcurveto
            126 -24 rmoveto
            7 47 4 43 28 vvcurveto
            265 -168 168 -265 -238 -177 -159 -253 -44 vhcurveto
            -25 -146 rlineto
            -16 callsubr
            endchar
          </CharString>
          <CharString index="41">
            470 133 callsubr
            137 hlineto
            96 545 rlineto
            310 hlineto
            360 203 191 337 225 -157 145 -244 hvcurveto
            -335 -122 rmoveto
            311 hlineto
            183 107 -96 -164 -248 -152 -146 -258 hvcurveto
            -306 hlineto
            return
          </CharString>
          <CharString index="42">
            39 callsubr
            -52 -41 -41 -52 -52 41 -41 52 hvcurveto
            return
          </CharString>
          <CharString index="43">
            rmoveto
            -71 -53 56 75 75 53 56 71 71 53 -56 -75 -75 -53 -56 -71 hvcurveto
            -95 vmoveto
            122 99 101 125 125 -99 101 -122 -122 -99 -101 -125 -125 99 -101 122 hvcurveto
            endchar
          </CharString>
          <CharString index="44">
            rmoveto
            4 23 2 26 24 vvcurveto
            245 -187 169 -270 -311 -205 -216 -396 -67 vhcurveto
            -37 -206 rlineto
            -8 -43 -6 -68 -54 vvcurveto
            -290 142 -187 241 -38 vhcurveto
            -64 -128 rlineto
            -69 52 vlineto
            -85 callsubr
            53 110 260 11 207 171 19 226 rlinecurve
            -137 hlineto
            -173 -36 -134 -105 -186 hhcurveto
            -225 -130 142 248 62 5 62 8 42 hvcurveto
            42 235 rlineto
            293 53 153 162 224 hhcurveto
            202 129 -120 -187 -16 -1 -12 -2 -23 hvcurveto
            endchar
          </CharString>
          <CharString index="45">
            -132 hlineto
            -80 -451 rlineto
            -72 -71 -134 -41 -128 hhcurveto
            -140 -88 73 133 19 2 21 4 22 hvcurveto
            52 296 20 callgsubr
            -49 -276 rlineto
            -6 -32 -2 -30 -29 vvcurveto
            -200 132 -116 206 124 113 26 58 82 vhcurveto
            8 hlineto
            return
          </CharString>
          <CharString index="46">
            463 rmoveto
            172 126 350 -589 rlineto
            153 hlineto
            -398 665 537 412 rlineto
            -192 hlineto
            -583 -446 rlineto
            -9 hlineto
            154 875 rlineto
            -131 97 callsubr
            131 hlineto
            return
          </CharString>
          <CharString index="47">
            rmoveto
            251 45 115 122 198 hhcurveto
            166 115 -101 -144 hvcurveto
            132 hlineto
            219 -162 144 -246 -259 -178 -158 -273 -47 vhcurveto
            -12 -73 -9 -55 -6 -43 rrcurveto
            -5 -43 -3 -30 -24 vvcurveto
            -229 128 -150 216 -30 vhcurveto
            -69 -140 rlineto
            -69 52 vlineto
            -85 callsubr
            59 124 199 12 153 119 42 176 rlinecurve
            -132 hlineto
            -115 -39 -115 -75 -139 hhcurveto
            -191 -108 114 201 41 6 53 7 40 hvcurveto
            endchar
          </CharString>
          <CharString index="48">
            -75 callsubr
            endchar
          </CharString>
          <CharString index="49">
            57 callgsubr
            247 1400 rlineto
            -512 -21 callsubr
            hlineto
            -228 -1294 rlineto
            -379 hlineto
            -19 -106 rlineto
            return
          </CharString>
          <CharString index="50">
            85 callgsubr
            132 hlineto
            883 1199 rlineto
            13 hlineto
            -211 -1199 rlineto
            125 -33 callsubr
            -132 hlineto
            -883 -1198 rlineto
            -13 hlineto
            211 1198 rlineto
            endchar
          </CharString>
          <CharString index="51">
            233 1319 rlineto
            444 62 callsubr
            -1024 hlineto
            -21 -124 rlineto
            444 128 callsubr
            return
          </CharString>
          <CharString index="52">
            667 98 rmoveto
            -186 -114 136 192 24 hvcurveto
            5 39 rlineto
            623 hlineto
            -13 -76 rlineto
            -179 -31 -131 -112 -177 hhcurveto
            -333 713 rmoveto
            130 hlineto
            94 23 124 73 137 hhcurveto
            196 117 -135 -204 -21 hvcurveto
            -7 -66 rlineto
            -752 hlineto
            -9 -76 -10 -76 rlineto
            -252 -31 167 -187 255 hhcurveto
            264 183 156 255 37 hvcurveto
            20 139 rlineto
            11 76 4 40 34 vvcurveto
            257 -157 156 -260 -210 -186 -125 -159 -25 vhcurveto
            return
          </CharString>
          <CharString index="53">
            668 -29 rmoveto
            341 187 230 504 85 hvcurveto
            13 77 rlineto
            380 64 -167 311 -370 hhcurveto
            -294 -179 -202 -269 -81 hvcurveto
            138 hlineto
            211 71 140 133 194 hhcurveto
            268 140 -244 -300 -58 hvcurveto
            -6 -31 rlineto
            -928 hlineto
            -22 -127 rlineto
            -377 -65 160 -296 369 hhcurveto
            11 126 rmoveto
            -275 -125 208 319 56 hvcurveto
            4 23 rlineto
            793 hlineto
            -2 -13 rlineto
            -353 -54 -143 -184 -254 hhcurveto
            return
          </CharString>
          <CharString index="54">
            -108 -619 rlineto
            -99 -121 -124 -45 -152 hhcurveto
            -219 -109 136 224 39 hvcurveto
            70 403 rlineto
            -137 hlineto
            -67 -383 rlineto
            -308 -54 159 -199 302 hhcurveto
            139 132 46 88 111 hvcurveto
            6 hlineto
            return
          </CharString>
          <CharString index="55">
            rlineto
            -136 -80 callgsubr
            return
          </CharString>
          <CharString index="56">
            rmoveto
            -191 -150 -119 -178 -31 hvcurveto
            118 hlineto
            115 20 105 84 123 hhcurveto
            129 74 -79 -120 -18 hvcurveto
            109 hlineto
            167 31 -126 130 -193 hhcurveto
            endchar
          </CharString>
          <CharString index="57">
            -56 -50 -50 -57 -57 50 -50 56 56 50 50 57 57 -50 50 -56 hvcurveto
            -382 hmoveto
            -56 -50 -50 -57 -57 50 -50 56 56 50 50 57 57 -50 50 -56 hvcurveto
            -53 307 rmoveto
            73 callgsubr
            -41 callgsubr
            endchar
          </CharString>
          <CharString index="58">
            70 hmoveto
            165 hlineto
            498 616 rlineto
            8 hlineto
            302 -616 rlineto
            148 hlineto
            -359 717 613 726 rlineto
            -167 hlineto
            -509 -615 rlineto
            -7 hlineto
            -294 615 rlineto
            -147 hlineto
            347 -716 rlineto
            return
          </CharString>
          <CharString index="59">
            1217 1077 rmoveto
            -62 callsubr
            return
          </CharString>
          <CharString index="60">
            421 1325 rmoveto
            184 69 -76 -203 -34 -2 -38 -4 -41 hvcurveto
            -506 -49 -175 -309 -236 hhcurveto
            103 1325 85 callgsubr
            148 hlineto
            320 234 366 570 45 hvcurveto
            3 33 1 34 36 vvcurveto
            281 -109 123 -248 vhcurveto
            return
          </CharString>
          <CharString index="61">
            -131 -29 callgsubr
            -97 -54 callgsubr
            107 -99 callgsubr
            10 hlineto
            return
          </CharString>
          <CharString index="62">
            920 -9 rmoveto
            68 63 7 8 37 hvcurveto
            20 112 rlineto
            -7 -49 -74 -4 -38 hhcurveto
            -140 -64 43 81 34 6 36 12 66 hvcurveto
            130 710 rlineto
            -503 -39 callgsubr
            372 hlineto
            -119 -647 rlineto
            -9 -49 -3 -35 -27 vvcurveto
            -142 111 -75 200 vhcurveto
            return
          </CharString>
          <CharString index="63">
            -167 hlineto
            201 -332 rlineto
            return
          </CharString>
          <CharString index="64">
            254 -48 callgsubr
            return
          </CharString>
          <CharString index="65">
            1628 -19 callsubr
            -546 332 -19 callsubr
            return
          </CharString>
          <CharString index="66">
            rmoveto
            -286 -50 -148 -164 -210 hhcurveto
            -112 -90 42 77 -62 hvcurveto
            698 894 rlineto
            19 -52 10 -60 -65 vvcurveto
            -4 callgsubr
            vhcurveto
            -751 125 rmoveto
            278 49 146 154 208 hhcurveto
            113 93 -45 -78 63 hvcurveto
            -699 -890 rlineto
            -18 54 -10 62 70 vvcurveto
            56 4 49 10 58 vhcurveto
            1035 761 rmoveto
            -149 hlineto
            -85 -108 rlineto
            89 -85 -120 49 -146 hhcurveto
            -280 -206 -203 -335 -59 hvcurveto
            132 callgsubr
            -112 24 -98 44 -81 vhcurveto
            -162 -206 rlineto
            156 hlineto
            81 104 rlineto
            -86 83 116 -48 138 hhcurveto
            297 194 190 355 64 hvcurveto
            132 callsubr
            118 -24 103 -44 83 vhcurveto
            endchar
          </CharString>
          <CharString index="67">
            rmoveto
            33 35 4 5 17 hvcurveto
            19 105 rlineto
            -3 -17 -16 -1 -25 hhcurveto
            -69 -48 43 60 74 41 58 157 146 hvcurveto
            119 111 65 129 35 194 44 237 rcurveline
            10 70 5 65 44 78 callgsubr
            -44 -5 -65 -92 vvcurveto
            -312 188 -215 272 70 47 12 30 47 vhcurveto
            6 -9 rlineto
            -106 -83 -41 -65 -87 vvcurveto
            -101 89 -77 117 vhcurveto
            -195 507 rmoveto
            -219 -136 162 260 57 5 49 10 57 2 callgsubr
            277 49 144 155 209 96 callsubr
            -290 -51 -145 -160 -212 hhcurveto
            endchar
          </CharString>
          <CharString index="68">
            rmoveto
            29 23 3 7 37 hvcurveto
            18 102 rlineto
            -2 -13 -16 -1 -18 hhcurveto
            -74 -54 48 66 73 39 52 155 135 hvcurveto
            84 73 55 106 28 144 26 147 rcurveline
            7 47 4 43 28 vvcurveto
            265 -168 168 -265 56 callsubr
            vhcurveto
            -27 -146 rlineto
            -8 -41 -3 -41 -47 vvcurveto
            -256 167 -168 253 42 45 12 21 41 vhcurveto
            5 -9 rlineto
            -112 -73 -47 -67 -89 vvcurveto
            -105 91 -83 113 vhcurveto
            -106 1387 rmoveto
            185 121 -124 -188 -38 -2 -33 -5 -27 hvcurveto
            -22 -137 rlineto
            -205 -33 -127 -126 -174 -70 callsubr
            23 3 29 7 59 102 callgsubr
          </CharString>
          <CharString index="69">
            878 14 callgsubr
            -150 hlineto
            -486 -934 rlineto
            -12 hlineto
            -165 934 77 callgsubr
            213 -1084 -34 -67 rlineto
            -155 -84 -44 -38 -92 hhcurveto
            -26 -32 2 2 -10 hvcurveto
            -20 -114 rlineto
            -2 15 37 -2 18 hhcurveto
            169 69 59 270 148 hvcurveto
            endchar
          </CharString>
          <CharString index="70">
            -694 hlineto
            -74 -377 rlineto
            -477 -94 -50 -112 -120 hhcurveto
            -21 -25 3 3 -9 hvcurveto
            -19 -117 rlineto
            -4 13 46 -4 21 hhcurveto
            205 65 118 590 120 hvcurveto
            return
          </CharString>
          <CharString index="71">
            132 callsubr
            332 -190 210 -301 -280 -206 -203 -335 -59 vhcurveto
            return
          </CharString>
          <CharString index="72">
            hlineto
            232 1319 -52 callsubr
            return
          </CharString>
          <CharString index="73">
            896 -18 rmoveto
            190 112 158 279 53 hvcurveto
            19 99 11 105 84 vvcurveto
            137 -30 137 -51 96 vhcurveto
            -141 hlineto
            62 -111 30 -131 -158 vvcurveto
            -91 -13 -73 -17 -89 vhcurveto
            -209 -39 -76 -115 -115 hhcurveto
            -87 -42 66 130 32 3 46 7 39 hvcurveto
            61 345 rlineto
            -126 hlineto
            -66 -370 rlineto
            -172 -31 -83 -116 -99 hhcurveto
            -95 -44 80 155 55 14 113 15 77 hvcurveto
            40 203 59 134 136 160 rrcurveto
            -148 hlineto
            -97 -119 -74 -152 -33 -161 rrcurveto
            -27 -131 -14 -107 -70 vvcurveto
            -221 94 -134 153 123 84 69 144 57 vhcurveto
            6 hlineto
            -132 7 82 -81 130 hhcurveto
            return
          </CharString>
          <CharString index="74">
            hlineto
            -43 callsubr
            return
          </CharString>
          <CharString index="75">
            rlineto
            -131 -43 callgsubr
            return
          </CharString>
          <CharString index="76">
            1914 rmoveto
            -159 hlineto
            223 -297 114 callgsubr
            -571 297 rmoveto
            -159 hlineto
            223 -297 114 callgsubr
            return
          </CharString>
          <CharString index="77">
            -440 -104 callgsubr
            return
          </CharString>
          <CharString index="78">
            rlineto
            -120 hlineto
            -767 -859 rlineto
            -6 hlineto
            152 859 rlineto
            -125 -43 callgsubr
            120 hlineto
            return
          </CharString>
          <CharString index="79">
            -104 callsubr
            endchar
          </CharString>
          <CharString index="80">
            716 -29 rmoveto
            251 204 153 211 42 hvcurveto
            3 13 2 13 1 13 rrcurveto
            -134 hlineto
            -3 -15 -4 -14 -4 -14 rrcurveto
            -141 -47 -135 -93 -165 hhcurveto
            -227 -142 161 258 48 6 64 10 49 hvcurveto
            594 hlineto
            22 124 rlineto
            -595 hlineto
            24 115 rlineto
            274 57 151 155 208 hhcurveto
            191 134 -119 -180 15 hvcurveto
            1 -12 1 -12 -12 vvcurveto
            137 32 hlineto
            256 -193 177 -281 -283 -209 -202 -338 -65 vhcurveto
            -30 -153 -16 -94 -8 -72 rrcurveto
            -4 -41 -2 -34 -33 vvcurveto
            -326 194 -211 299 vhcurveto
            return
          </CharString>
          <CharString index="81">
            935 681 rmoveto
            22 122 rlineto
            -188 hlineto
            -177 -109 91 139 173 133 145 242 182 113 -94 -146 -9 0 -10 -1 -9 hvcurveto
            134 hlineto
            2 16 1 16 15 vvcurveto
            210 -158 133 -276 -322 -188 -219 -228 -140 84 -96 141 -32 vhcurveto
            -2 -12 rlineto
            -257 -21 -158 -164 -208 vvcurveto
            -245 176 -138 295 268 244 144 255 55 vhcurveto
            -133 hlineto
            -161 -39 -179 -115 -213 hhcurveto
            -202 -130 95 171 182 150 140 297 hvcurveto
            return
          </CharString>
          <CharString index="82">
            1914 rmoveto
            -164 hlineto
            222 -297 rlineto
            148 hlineto
            return
          </CharString>
          <CharString index="83">
            rmoveto
            -52 -41 -41 -52 -52 41 -41 52 39 callsubr
            hvcurveto
            return
          </CharString>
          <CharString index="84">
            144 hlineto
            230 472 rlineto
            358 hlineto
            -83 -472 rlineto
            574 hlineto
            22 124 rlineto
            -448 hlineto
            95 542 rlineto
            412 hlineto
            22 125 rlineto
            -412 hlineto
            94 529 rlineto
            return
          </CharString>
          <CharString index="85">
            156 -118 121 -152 -71 -58 -27 -58 -52 vhcurveto
            -14 hlineto
            39 129 118 93 158 26 18 101 rcurveline
            -132 -16 -123 -58 -79 -84 rrcurveto
            -85 -90 -45 -110 -119 vvcurveto
            -202 127 -142 181 164 124 121 159 vhcurveto
            return
          </CharString>
          <CharString index="86">
            hlineto
            -19 -106 rlineto
            381 return
          </CharString>
          <CharString index="87">
            664 -17 rmoveto
            266 172 113 215 61 hvcurveto
            -131 hlineto
            -141 -52 -118 -69 -190 hhcurveto
            -187 -100 71 131 1 hvcurveto
            115 1 97 71 156 hhcurveto
            205 hlineto
            -41 callgsubr
            -111 hlineto
            -168 -95 63 111 121 111 73 182 178 93 -62 -26 callgsubr
            -111 258 vhcurveto
            return
          </CharString>
          <CharString index="88">
            rmoveto
            -44 callsubr
            146 hlineto
            return
          </CharString>
          <CharString index="89">
            1103 265 rmoveto
            -133 hlineto
            -97 -22 -110 -64 -143 hhcurveto
            -200 -112 115 203 16 4 39 3 14 hvcurveto
            519 hlineto
            19 111 rlineto
            -523 hlineto
            11 61 rlineto
            199 36 128 115 185 hhcurveto
            165 122 -96 -129 hvcurveto
            -12 129 18 vlineto
            197 -172 140 -244 -256 -172 -145 -253 -45 vhcurveto
            -28 -158 rlineto
            -8 -58 -4 -50 -31 vvcurveto
            -254 172 -163 267 220 162 111 171 30 vhcurveto
            return
          </CharString>
          <CharString index="90">
            111 629 rlineto
            214 38 136 134 177 hhcurveto
            150 98 -97 -156 -32 -5 -43 -9 -47 hvcurveto
            -169 -959 88 callsubr
            174 985 rlineto
            7 45 4 44 34 vvcurveto
            208 -142 136 -199 -157 -126 -74 -131 -58 vhcurveto
            -10 hlineto
            1 20 1 16 4 vvcurveto
            111 -58 46 -108 -29 -29 -3 -6 -20 vhcurveto
            -20 -112 rlineto
            3 15 13 2 20 hhcurveto
            55 30 -25 -55 -18 -3 -19 -5 -31 hvcurveto
            -145 -823 rlineto
            endchar
          </CharString>
          <CharString index="91">
            -7 -42 -4 -44 -43 vvcurveto
            -256 167 -168 253 -69 callgsubr
            vhcurveto
            return
          </CharString>
          <CharString index="92">
            -69 callgsubr
            hvcurveto
            26 147 rlineto
            7 47 4 43 28 vvcurveto
            return
          </CharString>
          <CharString index="93">
            -49 -280 rlineto
            -290 -39 callgsubr
            290 hlineto
            return
          </CharString>
          <CharString index="94">
            909 749 rmoveto
            184 16 147 159 185 vvcurveto
            220 -170 144 -260 -239 -171 -120 -194 -37 vhcurveto
            133 hlineto
            118 33 119 74 156 hhcurveto
            185 117 -98 -153 -168 -146 -119 -207 hvcurveto
            -166 hlineto
            -23 -132 rlineto
            155 hlineto
            195 127 -105 -161 -195 -147 -127 -227 -183 -146 115 144 hvcurveto
            17 -130 -44 vlineto
            return
          </CharString>
          <CharString index="95">
            31 callgsubr
            259 hlineto
            -210 -1195 83 callsubr
            687 62 callsubr
            -288 91 callgsubr
            return
          </CharString>
          <CharString index="96">
            481 110 callsubr
            255 hlineto
            170 85 -66 -122 -183 -117 -117 -224 hvcurveto
            -149 599 rmoveto
            45 256 rlineto
            478 hlineto
            19 111 rlineto
            -477 hlineto
            75 429 20 callgsubr
            -76 -429 rlineto
            -286 hlineto
            -19 -111 rlineto
            286 hlineto
            -171 -966 rlineto
            384 hlineto
            325 169 165 248 187 -124 110 -244 hvcurveto
            endchar
          </CharString>
          <CharString index="97">
            -9 callsubr
            -19 return
          </CharString>
          <CharString index="98">
            556 -68 callgsubr
            return
          </CharString>
          <CharString index="99">
            rmoveto
            205 140 147 264 46 hvcurveto
            187 1062 rlineto
            -513 hlineto
            -21 -121 rlineto
            382 hlineto
            -165 -936 rlineto
            -192 -34 -80 -97 -125 hhcurveto
            -100 -56 67 113 17 1 17 3 19 hvcurveto
            -132 hlineto
            -5 -30 -2 -28 -27 vvcurveto
            -170 100 -105 169 vhcurveto
            -480 30 rmoveto
            -1 callgsubr
            endchar
          </CharString>
          <CharString index="100">
            -52 callsubr
            136 hlineto
            return
          </CharString>
          <CharString index="101">
            -3 callsubr
            endchar
          </CharString>
          <CharString index="102">
            -193 -132 -117 -181 -32 hvcurveto
            121 hlineto
            116 19 82 90 119 hhcurveto
            131 60 -90 -116 -18 hvcurveto
            return
          </CharString>
          <CharString index="103">
            1801 -2 callgsubr
          </CharString>
          <CharString index="104">
            -99 callsubr
            -76 358 rmoveto
            -65 callgsubr
            -245 224 rlineto
            return
          </CharString>
          <CharString index="105">
            rmoveto
            -15 callsubr
            return
          </CharString>
          <CharString index="106">
            1617 -68 callsubr
            return
          </CharString>
          <CharString index="107">
            rmoveto
            106 84 84 105 105 -84 84 -106 -106 -84 -84 -105 -105 84 -84 106 hvcurveto
            84 vmoveto
            -60 -45 44 61 61 45 44 60 60 45 -44 -61 -61 -45 -44 -60 hvcurveto
            endchar
          </CharString>
          <CharString index="108">
            -316 -55 -201 -164 -330 hhcurveto
            -217 hlineto
            return
          </CharString>
          <CharString index="109">
            484 hmoveto
            131 88 callgsubr
            491 -20 callgsubr
            -491 hlineto
            21 120 rlineto
            128 22 98 64 172 hhcurveto
            69 104 -13 -16 58 hvcurveto
            20 114 rlineto
            18 -64 -95 12 -73 hhcurveto
            -255 -152 -104 -199 -34 hvcurveto
            -22 -124 rlineto
            -290 -39 callgsubr
            290 hlineto
            return
          </CharString>
          <CharString index="110">
            1124 612 rmoveto
            -603 hlineto
            13 76 rlineto
            179 31 126 112 172 hhcurveto
            179 112 -136 -192 -25 hvcurveto
            -736 -39 rmoveto
            -83 -44 42 70 73 31 63 18 29 hvcurveto
            -118 hlineto
            -19 -29 -39 -65 -85 vvcurveto
            -121 73 -85 159 vhcurveto
            6 hlineto
            -6 -51 -3 -31 -27 vvcurveto
            return
          </CharString>
          <CharString index="111">
            rlineto
            -286 -50 -148 -164 -210 hhcurveto
            -219 -136 162 260 return
          </CharString>
          <CharString index="112">
            34 callgsubr
            -451 hlineto
            49 280 rlineto
            return
          </CharString>
          <CharString index="113">
            -138 hlineto
            -219 -78 -137 -125 -179 hhcurveto
            -229 -105 183 361 63 hvcurveto
            17 91 rlineto
            838 hlineto
            26 150 rlineto
            345 60 -129 245 -328 hhcurveto
            -297 -198 -214 -402 -87 hvcurveto
            -82 1 -36 32 66 vvcurveto
            59 27 64 22 39 vhcurveto
            endchar
          </CharString>
          <CharString index="114">
            rmoveto
            158 hlineto
            327 297 131 callsubr
            return
          </CharString>
          <CharString index="115">
            -72 callgsubr
            endchar
          </CharString>
          <CharString index="116">
            351 1077 rmoveto
            212 -1077 rlineto
            140 hlineto
            592 1077 rlineto
            11 callgsubr
            return
          </CharString>
          <CharString index="117">
            rmoveto
            -61 -53 -52 -61 -61 53 -52 61 61 53 52 61 61 -53 52 -61 hvcurveto
            return
          </CharString>
          <CharString index="118">
            299 623 125 callgsubr
            -271 -623 rlineto
            return
          </CharString>
          <CharString index="119">
            806 915 -75 callsubr
            return
          </CharString>
          <CharString index="120">
            575 -30 callsubr
            return
          </CharString>
          <CharString index="121">
            -7 callgsubr
            -425 387 rmoveto
            -159 hlineto
            177 -296 rlineto
            137 hlineto
            return
          </CharString>
          <CharString index="122">
            hhcurveto
            -47 -38 1 2 -18 hvcurveto
            -22 -121 rlineto
            -3 24 33 -3 58 hhcurveto
            return
          </CharString>
          <CharString index="123">
            rmoveto
            638 hlineto
            17 98 119 callgsubr
            return
          </CharString>
          <CharString index="124">
            rlineto
            612 hlineto
            -49 -278 74 callgsubr
            49 278 return
          </CharString>
          <CharString index="125">
            1713 rmoveto
            233 241 rlineto
            -157 hlineto
            -208 -241 rlineto
            13 -481 rmoveto
            106 85 83 105 105 -85 83 -106 -106 -85 -83 -105 -105 85 -83 106 hvcurveto
            78 vmoveto
            -61 -47 48 62 62 47 48 61 61 47 -48 -62 -62 -47 -48 -61 hvcurveto
            return
          </CharString>
          <CharString index="126">
            rmoveto
            -186 217 rlineto
            -158 hlineto
            205 -217 rlineto
            -314 -212 16 callsubr
            endchar
          </CharString>
          <CharString index="127">
            -130 hlineto
            -94 -23 -119 -73 -132 hhcurveto
            -189 -115 135 204 22 hvcurveto
            7 66 rlineto
            732 hlineto
            10 76 9 76 rlineto
            252 30 -163 187 -248 hhcurveto
            -259 -178 -156 -255 -37 hvcurveto
            endchar
          </CharString>
          <CharString index="128">
            rmoveto
            -437 -425 rlineto
            154 hlineto
            427 421 1 2 -279 421 rlineto
            -140 hlineto
            275 -417 rlineto
            return
          </CharString>
          <CharString index="129">
            282 623 rlineto
            -147 hlineto
            -268 -623 rlineto
            return
          </CharString>
          <CharString index="130">
            -222 rmoveto
            52 hlineto
            45 callsubr
            -121 hlineto
            -76 -153 rlineto
            endchar
          </CharString>
          <CharString index="131">
            -80 callgsubr
            128 hlineto
            return
          </CharString>
          <CharString index="132">
            rlineto
            196 34 126 122 170 hhcurveto
            185 121 -124 -188 return
          </CharString>
          <CharString index="133">
            1914 rmoveto
            -184 hlineto
            -310 -297 rlineto
            168 hlineto
            return
          </CharString>
          <CharString index="134">
            1443 118 callsubr
            return
          </CharString>
          <CharString index="135">
            -94 -23 -124 -73 -137 hhcurveto
            -196 -117 135 204 21 hvcurveto
            7 66 rlineto
            752 hlineto
            10 76 9 76 rlineto
            252 31 -167 187 -255 hhcurveto
            -264 -183 -156 -255 -37 hvcurveto
            return
          </CharString>
          <CharString index="136">
            rmoveto
            350 704 rlineto
            2 hlineto
            99 -704 rlineto
            210 -560 rmoveto
            -217 27 callsubr
            -732 -1443 114 callgsubr
            220 442 rlineto
            527 hlineto
            62 -442 rlineto
            endchar
          </CharString>
          <CharString index="137">
            rmoveto
            -1490 -1274 -30 -169 1491 1274 rlineto
            endchar
          </CharString>
          <CharString index="138">
            34 callsubr
            endchar
          </CharString>
          <CharString index="139">
            rlineto
            290 hlineto
            return
          </CharString>
          <CharString index="140">
            -219 -136 162 260 56 4 49 10 58 hvcurveto
            return
          </CharString>
          <CharString index="141">
            1258 -94 callgsubr
            return
          </CharString>
          <CharString index="142">
            329 hmoveto
            127 callgsubr
            131 hlineto
            190 1077 81 callsubr
            endchar
          </CharString>
          <CharString index="143">
            -132 -80 callgsubr
            132 hlineto
            121 684 rlineto
            46 hlineto
            560 -684 rlineto
            return
          </CharString>
          <CharString index="144">
            -1443 rlineto
            return
          </CharString>
          <CharString index="145">
            126 callgsubr
            -161 -28 -90 -61 -210 hhcurveto
            -92 -103 4 6 -55 hvcurveto
            -21 -115 rlineto
            -8 75 75 -3 103 hhcurveto
            279 156 100 203 36 hvcurveto
            return
          </CharString>
          <CharString index="146">
            54 callgsubr
            52 -41 41 -52 return
          </CharString>
          <CharString index="147">
            719 1484 47 callsubr
            return
          </CharString>
          <CharString index="148">
            799 773 rmoveto
            15 callgsubr
            -254 -1108 rmoveto
            300 696 rlineto
            -207 hlineto
            -251 -696 rlineto
            endchar
          </CharString>
          <CharString index="149">
            1684 rmoveto
            -105 callgsubr
            382 hmoveto
            -105 callgsubr
            return
          </CharString>
          <CharString index="150">
            1307 -104 callgsubr
            return
          </CharString>
          <CharString index="151">
            rmoveto
            -178 hlineto
            -296 -332 rlineto
            157 hlineto
            return
          </CharString>
          <CharString index="152">
            -85 callsubr
            68 142 rlineto
            return
          </CharString>
          <CharString index="153">
            rlineto
            -130 -80 callgsubr
            return
          </CharString>
          <CharString index="154">
            rmoveto
            -84 callgsubr
            return
          </CharString>
          <CharString index="155">
            -1296 53 callgsubr
          </CharString>
          <CharString index="156">
            rlineto
            -850 -43 callgsubr
            131 88 callgsubr
            588 hlineto
            return
          </CharString>
          <CharString index="157">
            1368 73 callsubr
            -1266 85 callsubr
            endchar
          </CharString>
          <CharString index="158">
            hlineto
            97 47 -28 -56 -50 -41 -27 -74 -36 -73 12 12 -36 hvcurveto
            -17 -95 rlineto
            -18 48 62 -11 52 hhcurveto
            134 102 82 107 86 -53 54 -94 11 hvcurveto
            return
          </CharString>
          <CharString index="159">
            170 966 rlineto
            return
          </CharString>
          <CharString index="160">
            359 1077 rmoveto
            123 callsubr
            132 88 callgsubr
            398 -20 callgsubr
            endchar
          </CharString>
          <CharString index="161">
            rlineto
            372 hlineto
            417 238 194 395 69 67 callgsubr
            6 44 4 60 57 vvcurveto
            347 -181 187 -335 vhcurveto
            return
          </CharString>
          <CharString index="162">
            rmoveto
            58 46 46 58 58 -46 46 -58 -58 -46 -46 -58 -58 46 -46 58 hvcurveto
            return
          </CharString>
          <CharString index="163">
            -238 -174 -157 -255 -45 return
          </CharString>
          <CharString index="164">
            hlineto
            70 396 rlineto
            return
          </CharString>
          <CharString index="165">
            rlineto
            -125 hlineto
            return
          </CharString>
          <CharString index="166">
            820 rmoveto
            66 callgsubr
            return
          </CharString>
          <CharString index="167">
            114 callsubr
            482 hmoveto
            76 callgsubr
          </CharString>
          <CharString index="168">
            423 hlineto
            20 116 rlineto
            -423 hlineto
            80 451 rlineto
            -114 hlineto
            -80 -451 rlineto
            -423 hlineto
            -20 -116 rlineto
            423 hlineto
            return
          </CharString>
          <CharString index="169">
            hlineto
            21 124 rlineto
            return
          </CharString>
          <CharString index="170">
            66 callsubr
            -71 -405 69 callsubr
            210 hlineto
            return
          </CharString>
          <CharString index="171">
            17 callsubr
            rlineto
            endchar
          </CharString>
          <CharString index="172">
            266 1506 rlineto
            return
          </CharString>
          <CharString index="173">
            1279 1077 rmoveto
            -950 -39 callgsubr
            210 hlineto
            return
          </CharString>
          <CharString index="174">
            -113 -642 rlineto
            return
          </CharString>
          <CharString index="175">
            rmoveto
            153 113 104 170 30 hvcurveto
            22 126 rlineto
            4 25 2 24 22 vvcurveto
            149 -94 90 -153 -152 return
          </CharString>
          <CharString index="176">
            rlineto
            -210 -39 callgsubr
            return
          </CharString>
          <CharString index="177">
            -22 -124 rlineto
            return
          </CharString>
          <CharString index="178">
            rlineto
            360 -20 callgsubr
            -360 hlineto
            71 405 27 callgsubr
            endchar
          </CharString>
          <CharString index="179">
            1668 19 callgsubr
            return
          </CharString>
          <CharString index="180">
            581 rmoveto
            21 116 rlineto
            return
          </CharString>
          <CharString index="181">
            -154 hlineto
            -516 -836 rlineto
            -4 hlineto
            -214 836 rlineto
            -132 -43 callgsubr
            119 hlineto
            return
          </CharString>
          <CharString index="182">
            89 callgsubr
            119 677 rlineto
            -130 hlineto
            -193 -122 -22 -122 198 126 rlineto
            3 hlineto
            return
          </CharString>
          <CharString index="183">
            rlineto
            -290 hlineto
            return
          </CharString>
          <CharString index="184">
            -1159 rlineto
            156 -33 callsubr
            -118 hlineto
            -204 -1158 rlineto
            -18 hlineto
            return
          </CharString>
          <CharString index="185">
            -181 -112 105 151 12 1 12 1 12 hvcurveto
            -125 hlineto
            -2 -17 -1 -16 -16 vvcurveto
            -208 return
          </CharString>
          <CharString index="186">
            10 hlineto
            40 callgsubr
            return
          </CharString>
          <CharString index="187">
            -1319 rlineto
            return
          </CharString>
          <CharString index="188">
            20 callgsubr
            -82 -462 rlineto
            -608 hlineto
            82 462 -32 callsubr
            return
          </CharString>
          <CharString index="189">
            950 43 callgsubr
            return
          </CharString>
          <CharString index="190">
            rlineto
            -260 hlineto
            -21 -124 rlineto
            return
          </CharString>
          <CharString index="191">
            hlineto
            -254 -1442 rlineto
            return
          </CharString>
          <CharString index="192">
            hlineto
            -21 -116 rlineto
            return
          </CharString>
          <CharString index="193">
            1666 rmoveto
            -105 callgsubr
            return
          </CharString>
          <CharString index="194">
            hlineto
            281 296 rlineto
            return
          </CharString>
          <CharString index="195">
            rlineto
            131 hlineto
            return
          </CharString>
          <CharString index="196">
            -39 callgsubr
            210 hlineto
            -150 -855 69 callsubr
            return
          </CharString>
          <CharString index="197">
            628 rmoveto
            285 hlineto
            170 81 -102 -115 -184 -132 -136 -208 return
          </CharString>
          <CharString index="198">
            rmoveto
            67 54 57 70 70 -54 57 -67 -67 -54 -57 -70 -70 54 -57 67 hvcurveto
            endchar
          </CharString>
          <CharString index="199">
            rmoveto
            74 62 63 73 73 -62 63 -74 -74 -62 -63 -73 -73 62 -63 74 hvcurveto
            endchar
          </CharString>
          <CharString index="200">
            rmoveto
            -67 -54 -57 -70 -70 54 -57 67 67 54 57 70 70 -54 57 -67 hvcurveto
            endchar
          </CharString>
          <CharString index="201">
            33 187 rlineto
            return
          </CharString>
          <CharString index="202">
            1055 1838 rmoveto
            -127 208 rlineto
            -139 hlineto
            146 -208 rlineto
            return
          </CharString>
          <CharString index="203">
            109 callgsubr
            -43 -242 rlineto
            return
          </CharString>
          <CharString index="204">
            hlineto
            -266 119 callsubr
            return
          </CharString>
          <CharString index="205">
            rmoveto
            -56 -50 -50 -57 -57 50 -50 56 56 50 50 57 57 -50 50 -56 hvcurveto
            return
          </CharString>
          <CharString index="206">
            104 588 rlineto
            10 hlineto
            return
          </CharString>
          <CharString index="207">
            1296 rmoveto
            -180 332 rlineto
            -44 callsubr
            return
          </CharString>
          <CharString index="208">
            775 -1 callsubr
            return
          </CharString>
          <CharString index="209">
            -136 -224 -39 hvcurveto
            -70 -403 rlineto
            return
          </CharString>
          <CharString index="210">
            hlineto
            19 106 rlineto
            return
          </CharString>
          <CharString index="211">
            rlineto
            -236 -39 callgsubr
            236 hlineto
            -170 -966 rlineto
            return
          </CharString>
          <CharString index="212">
            hlineto
            151 92 -78 -130 -167 -120 -113 -186 hvcurveto
            return
          </CharString>
          <CharString index="213">
            820 114 callsubr
            return
          </CharString>
          <CharString index="214">
            -80 callgsubr
            137 hlineto
            232 1318 rlineto
            return
          </CharString>
          <CharString index="215">
            1506 rmoveto
            -79 -444 rlineto
            102 hlineto
            117 444 rlineto
            return
          </CharString>
          <CharString index="216">
            88 callgsubr
            -130 hlineto
            return
          </CharString>
          <CharString index="217">
            111 rmoveto
            86 488 rlineto
            return
          </CharString>
          <CharString index="218">
            rmoveto
            190 1077 rlineto
            return
          </CharString>
          <CharString index="219">
            853 18 101 rlineto
            return
          </CharString>
          <CharString index="220">
            89 504 rlineto
            return
          </CharString>
          <CharString index="221">
            rmoveto
            11 callsubr
            return
          </CharString>
          <CharString index="222">
            rmoveto
            134 760 rlineto
            -114 hlineto
            -134 -760 rlineto
            return
          </CharString>
          <CharString index="223">
            71 hhcurveto
            47 36 -19 0 hvcurveto
            63 115 rlineto
            0 -48 31 return
          </CharString>
          <CharString index="224">
            rmoveto
            -164 hlineto
            222 -297 rlineto
            148 hlineto
            endchar
          </CharString>
          <CharString index="225">
            rlineto
            -134 hlineto
            return
          </CharString>
          <CharString index="226">
            -1506 rlineto
            return
          </CharString>
          <CharString index="227">
            rlineto
            -129 hlineto
            return
          </CharString>
          <CharString index="228">
            -207 297 rlineto
            -159 hlineto
            223 -297 rlineto
            return
          </CharString>
          <CharString index="229">
            rlineto
            -118 hlineto
            return
          </CharString>
          <CharString index="230">
            -20 -111 rlineto
            398 hlineto
            -170 -966 rlineto
            return
          </CharString>
          <CharString index="231">
            -43 callsubr
            endchar
          </CharString>
          <CharString index="232">
            198 hmoveto
            204 1159 rlineto
            18 hlineto
            return
          </CharString>
          <CharString index="233">
            290 126 22 125 -290 -126 return
          </CharString>
          <CharString index="234">
            vhcurveto
            -12 hlineto
            -155 942 rlineto
            -130 hlineto
            return
          </CharString>
          <CharString index="235">
            hlineto
            -233 80 callsubr
            return
          </CharString>
          <CharString index="236">
            hvcurveto
            28 158 rlineto
            return
          </CharString>
          <CharString index="237">
            52 296 rlineto
            return
          </CharString>
          <CharString index="238">
            rlineto
            -174 hlineto
            return
          </CharString>
          <CharString index="239">
            44 237 rlineto
            9 66 6 66 47 vvcurveto
            return
          </CharString>
          <CharString index="240">
            1443 85 callgsubr
            return
          </CharString>
          <CharString index="241">
            hvcurveto
            133 hlineto
            return
          </CharString>
        <CharString name=".notdef">
          endchar
        </CharString>
        <CharString name="A">
          510 560 -63 callgsubr
        </CharString>
        <CharString name="AE">
          758 589 rmoveto
          -322 hlineto
          357 734 rlineto
          94 hlineto
          574 -3 rmoveto
          21 123 rlineto
          -760 hlineto
          -717 37 callsubr
          -23 callsubr
          endchar
        </CharString>
        <CharString name="AEacute">
          1484 26 callsubr
          -271 -294 rmoveto
          -129 -734 rlineto
          -322 hlineto
          357 734 rlineto
          -788 -1323 rmoveto
          -23 callsubr
          448 hlineto
          21 123 rlineto
          -760 hlineto
          endchar
        </CharString>
        <CharString name="AEmacron">
          1490 1832 39 callgsubr
          -582 -391 rmoveto
          -129 -734 rlineto
          -322 hlineto
          357 734 rlineto
          -788 -1323 rmoveto
          -23 callsubr
          448 hlineto
          21 123 rlineto
          -760 hlineto
          endchar
        </CharString>
        <CharString name="Aacute">
          1269 26 callsubr
          -433 -1057 -99 callsubr
          endchar
        </CharString>
        <CharString name="Abreve">
          510 560 -99 callsubr
          227 471 rmoveto
          -52 callgsubr
          16 callgsubr
          endchar
        </CharString>
        <CharString name="Abreveacute">
          1199 2046 rmoveto
          -158 hlineto
          -201 -208 rlineto
          139 hlineto
          -469 -1278 -99 callsubr
          210 395 rmoveto
          7 callgsubr
          185 138 105 154 27 vhcurveto
          endchar
        </CharString>
        <CharString name="Abrevedotbelow">
          575 90 callgsubr
          -65 774 -99 callsubr
          227 471 rmoveto
          -52 callgsubr
          16 callgsubr
          endchar
        </CharString>
        <CharString name="Abrevegrave">
          95 callsubr
          -425 -1278 -99 callsubr
          210 395 rmoveto
          7 callgsubr
          185 138 105 154 27 vhcurveto
          endchar
        </CharString>
        <CharString name="Abrevehookabove">
          940 1770 rmoveto
          105 callgsubr
          -15 -82 rlineto
          106 callgsubr
          -365 -1268 -99 callsubr
          210 395 rmoveto
          75 callgsubr
          193 134 98 161 26 hvcurveto
          endchar
        </CharString>
        <CharString name="Abrevetilde">
          1205 2042 rmoveto
          71 callgsubr
          116 callgsubr
          -800 -1482 -99 callsubr
          -342 354 rmoveto
          -135 21 119 -83 173 hhcurveto
          176 131 82 136 41 hvcurveto
          -121 hlineto
          -75 -32 -83 -47 -101 hhcurveto
          -111 -76 44 78 -23 hvcurveto
          endchar
        </CharString>
        <CharString name="Acaron">
          981 1617 rmoveto
          341 297 rlineto
          -165 hlineto
          -226 -202 rlineto
          -12 hlineto
          -154 202 61 callgsubr
          237 -297 rlineto
          -347 -1057 -99 callsubr
          endchar
        </CharString>
        <CharString name="Acircumflex">
          60 callgsubr
          -222 -1057 -99 callsubr
          endchar
        </CharString>
        <CharString name="Acircumflexacute">
          510 560 -3 callsubr
          384 245 rmoveto
          -262 -217 rlineto
          149 hlineto
          281 217 rlineto
          endchar
        </CharString>
        <CharString name="Acircumflexdotbelow">
          60 callgsubr
          -157 -1831 10 callsubr
          -65 774 -99 callsubr
          endchar
        </CharString>
        <CharString name="Acircumflexgrave">
          1349 1829 51 callgsubr
          -705 -1269 -6 callsubr
        </CharString>
        <CharString name="Acircumflexhookabove">
          510 560 -3 callsubr
          100 180 -15 callgsubr
        </CharString>
        <CharString name="Acircumflextilde">
          1216 2072 rmoveto
          -78 -4 -35 -44 -57 -107 1 136 -169 hhcurveto
          -121 -81 -89 -133 hvcurveto
          106 hlineto
          80 3 33 42 59 107 -1 -137 169 hhcurveto
          119 83 92 131 hvcurveto
          -811 -1512 -6 callsubr
        </CharString>
        <CharString name="Acyrillic">
          510 560 -63 callgsubr
        </CharString>
        <CharString name="Adblgrave">
          1149 1617 rmoveto
          121 callsubr
          -221 hmoveto
          121 callsubr
          -132 -1057 -63 callgsubr
        </CharString>
        <CharString name="Adieresis">
          82 callgsubr
          -245 -1106 -99 callsubr
          183 437 98 callsubr
          endchar
        </CharString>
        <CharString name="Adieresismacron">
          510 560 -99 callsubr
          -119 218 rmoveto
          52 -41 41 -52 -52 -41 -41 -52 -52 41 -41 52 54 callgsubr
          vhcurveto
          271 93 -24 callsubr
          -469 258 rmoveto
          -17 -98 rlineto
          638 hlineto
          17 98 rlineto
          endchar
        </CharString>
        <CharString name="Adotaccent">
          82 callsubr
          -440 -1100 -63 callgsubr
        </CharString>
        <CharString name="Adotbelow">
          575 90 callgsubr
          -65 774 29 callsubr
        </CharString>
        <CharString name="Adotmacron">
          510 560 -99 callsubr
          -37 135 55 callsubr
          -262 434 rmoveto
          -18 -98 rlineto
          638 hlineto
          18 98 rlineto
          endchar
        </CharString>
        <CharString name="Agrave">
          959 1617 rmoveto
          -206 297 rlineto
          -164 hlineto
          222 -297 rlineto
          -301 -1057 -63 callgsubr
        </CharString>
        <CharString name="Ahookabove">
          953 1576 rmoveto
          92 33 62 77 80 vvcurveto
          101 -77 63 -121 -44 -52 -10 -14 -30 vhcurveto
          -98 vlineto
          14 25 43 9 42 hhcurveto
          61 40 -30 -44 -42 -41 -43 -59 -20 hvcurveto
          -384 -1092 -63 callgsubr
        </CharString>
        <CharString name="Ainvertedbreve">
          510 560 -99 callsubr
          -218 174 rmoveto
          115 20 105 84 123 hhcurveto
          129 74 -79 -120 -18 hvcurveto
          109 hlineto
          167 31 -126 130 -193 hhcurveto
          -191 -150 -119 -178 -31 hvcurveto
          endchar
        </CharString>
        <CharString name="Alphagreek">
          510 560 -63 callgsubr
        </CharString>
        <CharString name="Alphatonosgreek">
          659 33 callgsubr
          -177 hlineto
          -183 -332 rlineto
          125 hlineto
          185 -551 rmoveto
          301 704 rlineto
          2 hlineto
          52 -704 rlineto
          42 -560 rmoveto
          130 hlineto
          -132 27 callsubr
          -640 37 callsubr
          140 hlineto
          189 442 rlineto
          414 hlineto
          endchar
        </CharString>
        <CharString name="Amacron">
          510 560 -99 callsubr
          -317 389 rmoveto
          73 callgsubr
          -41 callgsubr
          endchar
        </CharString>
        <CharString name="Aogonek">
          861 1264 rmoveto
          2 hlineto
          99 -704 rlineto
          -451 hlineto
          522 -503 rmoveto
          -141 -57 -84 -98 -109 vvcurveto
          -119 87 -84 123 32 31 3 5 20 vhcurveto
          18 104 rlineto
          -2 -13 -15 -1 -16 hhcurveto
          -78 -52 47 70 83 79 64 148 37 hvcurveto
          -217 27 callsubr
          -732 -1443 114 callgsubr
          220 442 rlineto
          527 hlineto
          endchar
        </CharString>
        <CharString name="Aring">
          916 1858 46 callgsubr
          -406 -1004 -63 callgsubr
        </CharString>
        <CharString name="Aringacute">
          1206 2137 rmoveto
          -147 hlineto
          -154 -169 38 callgsubr
          -106 -142 46 callgsubr
          -415 -972 -99 callsubr
          endchar
        </CharString>
        <CharString name="Aringbelow">
          575 -498 rmoveto
          -71 -53 56 75 75 53 56 71 71 53 -56 -75 -75 -53 -56 -71 hvcurveto
          357 vmoveto
          -122 -99 -101 -125 -125 99 -101 122 122 99 101 125 125 -99 101 -122 hvcurveto
          -65 701 29 callsubr
        </CharString>
        <CharString name="Atilde">
          510 560 -99 callsubr
          207 444 rmoveto
          -98 -4 -37 -56 -61 -93 -31 166 -163 hhcurveto
          -125 -79 -99 -157 hvcurveto
          106 hlineto
          101 3 35 53 63 107 25 -165 155 hhcurveto
          123 81 101 154 hvcurveto
          endchar
        </CharString>
        <CharString name="B">
          -89 callgsubr
          endchar
        </CharString>
        <CharString name="Bdotaccent">
          -89 callgsubr
          444 217 -104 callgsubr
          endchar
        </CharString>
        <CharString name="Bdotbelow">
          -89 callgsubr
          69 -1883 -104 callgsubr
          endchar
        </CharString>
        <CharString name="Becyrillic">
          681 hmoveto
          330 220 180 272 253 -157 147 -272 hvcurveto
          -324 hlineto
          83 467 rlineto
          687 62 callsubr
          -825 -80 callgsubr
          160 124 rmoveto
          106 604 rlineto
          319 hlineto
          205 110 -97 -179 -195 -161 -133 -237 hvcurveto
          endchar
        </CharString>
        <CharString name="Betagreek">
          -89 callgsubr
          endchar
        </CharString>
        <CharString name="Blinebelow">
          -89 callgsubr
          378 -1829 -95 callsubr
          endchar
        </CharString>
        <CharString name="C">
          1080 376 -88 callgsubr
        </CharString>
        <CharString name="Cacute">
          780 -1 callsubr
          -10 -1538 -88 callgsubr
        </CharString>
        <CharString name="Ccaron">
          862 1617 -81 callgsubr
          455 -1538 -88 callgsubr
        </CharString>
        <CharString name="Ccedilla">
          1315 986 -63 callsubr
        </CharString>
        <CharString name="Ccedillaacute">
          1274 26 callsubr
          367 -631 -63 callsubr
        </CharString>
        <CharString name="Ccircumflex">
          1037 64 callgsubr
          -194 -1241 -88 callgsubr
        </CharString>
        <CharString name="Cdotaccent">
          955 43 callgsubr
          125 -1284 -88 callgsubr
        </CharString>
        <CharString name="Checyrillic">
          1360 33 callgsubr
          -136 hlineto
          -53 callsubr
          -121 -687 rlineto
          136 hlineto
          endchar
        </CharString>
        <CharString name="Chigreek">
          -49 callsubr
          endchar
        </CharString>
        <CharString name="D">
          -87 callsubr
          endchar
        </CharString>
        <CharString name="Dcaron">
          -87 callsubr
          265 298 -81 callgsubr
          endchar
        </CharString>
        <CharString name="Dcircumflexbelow">
          -87 callsubr
          -72 -1488 -101 callgsubr
          endchar
        </CharString>
        <CharString name="Dcommaaccent">
          -87 callsubr
          -5 -1822 -44 callgsubr
        </CharString>
        <CharString name="Dcroat">
          1136 604 rmoveto
          1 callsubr
          98 557 rlineto
          283 hlineto
          22 124 rlineto
          -283 hlineto
          91 514 81 callgsubr
          -112 -638 rlineto
          -152 31 callgsubr
          152 hlineto
          -120 -681 52 callgsubr
        </CharString>
        <CharString name="Ddotaccent">
          -87 callsubr
          358 341 -104 callgsubr
          endchar
        </CharString>
        <CharString name="Ddotbelow">
          -87 callsubr
          -17 -1759 -104 callgsubr
          endchar
        </CharString>
        <CharString name="Decyrillic">
          1120 hmoveto
          -50 -285 rlineto
          127 hlineto
          72 409 rlineto
          -168 hlineto
          232 1319 rlineto
          -774 hlineto
          -215 -935 -51 -218 -65 -117 -94 -49 rlinecurve
          -93 hlineto
          -72 -409 74 callgsubr
          50 285 rlineto
          518 1319 rmoveto
          511 hlineto
          -211 -1195 rlineto
          -654 hlineto
          2 10 65 46 48 109 50 214 rlinecurve
          endchar
        </CharString>
        <CharString name="Deltagreek">
          100 hmoveto
          1059 hlineto
          17 97 -222 1346 118 callsubr
          -703 -1346 rlineto
          160 27 rmoveto
          2 12 581 1128 rlineto
          2 hlineto
          179 -1128 -2 -12 rlineto
          endchar
        </CharString>
        <CharString name="Djecyrillic">
          1316 480 rmoveto
          236 -140 152 -218 -121 -91 -39 -45 -62 vhcurveto
          -6 hlineto
          94 536 rlineto
          403 hlineto
          21 123 rlineto
          -942 hlineto
          -21 -123 rlineto
          403 hlineto
          -233 -1320 rlineto
          136 hlineto
          112 641 rlineto
          55 55 110 48 117 hhcurveto
          150 96 -106 -167 -204 -127 -152 -171 -33 -36 4 5 -17 hvcurveto
          -24 -123 rlineto
          -7 18 38 -4 48 hhcurveto
          250 191 213 277 hvcurveto
          endchar
        </CharString>
        <CharString name="Dlinebelow">
          -87 callsubr
          292 -1705 -95 callsubr
          endchar
        </CharString>
        <CharString name="Dzecyrillic">
          -103 callsubr
          endchar
        </CharString>
        <CharString name="Dzhecyrillic">
          519 -285 rmoveto
          128 hlineto
          50 285 rlineto
          442 -33 callsubr
          -136 hlineto
          -232 80 callsubr
          -740 -35 callsubr
          442 hlineto
          endchar
        </CharString>
        <CharString name="E">
          1094 124 -22 callgsubr
        </CharString>
        <CharString name="Eacute">
          1094 124 -102 callgsubr
          -273 -1 callsubr
          endchar
        </CharString>
        <CharString name="Ebreve">
          1094 124 -102 callgsubr
          -121 1617 rmoveto
          16 callgsubr
          -118 hlineto
          -52 callgsubr
          endchar
        </CharString>
        <CharString name="Ecaron">
          1094 124 -102 callgsubr
          -191 1617 -81 callgsubr
          endchar
        </CharString>
        <CharString name="Ecedilla">
          1305 1319 rmoveto
          21 124 rlineto
          -830 -80 callgsubr
          362 hlineto
          -76 -153 rlineto
          -69 52 vlineto
          45 callsubr
          347 hlineto
          22 124 rlineto
          86 callgsubr
          endchar
        </CharString>
        <CharString name="Ecedillabreve">
          1205 1914 rmoveto
          -52 callgsubr
          16 callgsubr
          -18 -595 rmoveto
          21 124 rlineto
          -830 -80 callgsubr
          362 hlineto
          -76 -153 rlineto
          -69 52 vlineto
          45 callsubr
          347 hlineto
          22 124 rlineto
          86 callgsubr
          endchar
        </CharString>
        <CharString name="Ecircumflex">
          1094 124 -102 callgsubr
          -16 64 callgsubr
          endchar
        </CharString>
        <CharString name="Ecircumflexacute">
          1094 124 -102 callgsubr
          98 1829 rmoveto
          149 hlineto
          281 217 rlineto
          -168 hlineto
          -384 -245 rmoveto
          -146 hlineto
          -65 callgsubr
          endchar
        </CharString>
        <CharString name="Ecircumflexbelow">
          1094 124 -102 callgsubr
          -528 -169 -101 callgsubr
          endchar
        </CharString>
        <CharString name="Ecircumflexdotbelow">
          1094 124 -102 callgsubr
          -16 64 callgsubr
          -694 -2057 -104 callgsubr
          endchar
        </CharString>
        <CharString name="Ecircumflexgrave">
          1094 124 -102 callgsubr
          301 1829 51 callgsubr
          -191 -28 rmoveto
          -146 hlineto
          -65 callgsubr
          endchar
        </CharString>
        <CharString name="Ecircumflexhookabove">
          1094 124 -102 callgsubr
          -24 1801 rmoveto
          -146 hlineto
          -65 callgsubr
          -145 404 -15 callgsubr
        </CharString>
        <CharString name="Ecircumflextilde">
          1094 124 -102 callgsubr
          -24 -4 callsubr
        </CharString>
        <CharString name="Ecyrillic">
          -27 callsubr
          endchar
        </CharString>
        <CharString name="Edblgrave">
          966 -31 callsubr
          285 -1493 -22 callgsubr
        </CharString>
        <CharString name="Edieresis">
          1094 124 -102 callgsubr
          -293 86 callsubr
          382 hmoveto
          -105 callgsubr
          endchar
        </CharString>
        <CharString name="Edotaccent">
          1094 124 -102 callgsubr
          -98 43 callgsubr
          endchar
        </CharString>
        <CharString name="Edotbelow">
          1094 124 -102 callgsubr
          -473 -30 callsubr
          endchar
        </CharString>
        <CharString name="Efcyrillic">
          327 797 rmoveto
          37 257 142 122 268 5 -159 -903 rcurveline
          -196 29 -110 126 196 vvcurveto
          36 1 16 9 61 vhcurveto
          1006 -112 rmoveto
          15 93 rlineto
          6 26 2 31 57 vvcurveto
          253 -159 176 -258 35 vhcurveto
          28 159 rlineto
          -136 hlineto
          -27 -154 -352 -10 -193 -154 -54 -317 rlinecurve
          -16 -93 rlineto
          -5 -28 -2 -35 -50 vvcurveto
          -256 156 -172 264 -35 vhcurveto
          -31 -173 rlineto
          136 hlineto
          29 166 343 9 203 163 51 309 rlinecurve
          -417 542 rmoveto
          200 -31 105 -120 -195 vvcurveto
          -32 -2 -27 -8 -54 vhcurveto
          -7 -54 -37 -252 -142 -122 -268 -12 rlinecurve
          endchar
        </CharString>
        <CharString name="Egrave">
          777 -25 callsubr
          111 -1493 -22 callgsubr
        </CharString>
        <CharString name="Ehookabove">
          1094 124 -102 callgsubr
          -265 1808 -56 callgsubr
          endchar
        </CharString>
        <CharString name="Einvertedbreve">
          1094 124 -102 callgsubr
          -58 1914 -51 callsubr
        </CharString>
        <CharString name="Elcyrillic">
          1367 33 callgsubr
          -799 hlineto
          35 callgsubr
          -233 -1319 rlineto
          137 hlineto
          endchar
        </CharString>
        <CharString name="Emacron">
          1094 124 -102 callgsubr
          206 44 callgsubr
          endchar
        </CharString>
        <CharString name="Emacronacute">
          621 1616 68 callgsubr
          252 -1704 -22 callgsubr
        </CharString>
        <CharString name="Emacrongrave">
          1094 124 -102 callgsubr
          3 1829 19 callsubr
        </CharString>
        <CharString name="Emcyrillic">
          -67 callgsubr
          endchar
        </CharString>
        <CharString name="Encyrillic">
          -73 callgsubr
          endchar
        </CharString>
        <CharString name="Eogonek">
          873 -10 rmoveto
          -109 -56 -44 -72 -90 22 callgsubr
          146 44 hvcurveto
          21 117 rlineto
          -703 hlineto
          98 554 rlineto
          656 hlineto
          21 122 rlineto
          -656 hlineto
          92 519 rlineto
          693 62 callsubr
          -830 -80 callgsubr
          631 hlineto
          endchar
        </CharString>
        <CharString name="Epsilongreek">
          1094 124 -22 callgsubr
        </CharString>
        <CharString name="Epsilontonosgreek">
          1137 124 rmoveto
          -513 hlineto
          98 554 rlineto
          476 hlineto
          21 122 rlineto
          -476 hlineto
          92 519 rlineto
          513 62 callsubr
          -650 -80 callgsubr
          650 hlineto
          -883 1111 -33 callgsubr
          endchar
        </CharString>
        <CharString name="Ercyrillic">
          -66 callsubr
          endchar
        </CharString>
        <CharString name="Ereversedcyrillic">
          412 1035 -92 callsubr
        </CharString>
        <CharString name="Escyrillic">
          1080 376 -88 callgsubr
        </CharString>
        <CharString name="Etagreek">
          -73 callgsubr
          endchar
        </CharString>
        <CharString name="Etatonosgreek">
          1177 hmoveto
          -43 callsubr
          -137 hlineto
          67 callsubr
          -483 hlineto
          113 642 37 callgsubr
          137 hlineto
          119 677 rlineto
          483 hlineto
          -119 -677 rlineto
          -828 1111 -33 callgsubr
          endchar
        </CharString>
        <CharString name="Eth">
          1136 604 rmoveto
          1 callsubr
          98 554 rlineto
          271 62 callsubr
          -270 hlineto
          91 517 81 callgsubr
          -113 -641 rlineto
          -139 hlineto
          -21 -124 rlineto
          138 hlineto
          -119 -678 52 callgsubr
        </CharString>
        <CharString name="Etilde">
          1094 124 -102 callgsubr
          -273 1797 -70 callgsubr
        </CharString>
        <CharString name="Etildebelow">
          1094 124 -102 callgsubr
          -618 -302 -103 callgsubr
          endchar
        </CharString>
        <CharString name="Euro">
          246 944 rmoveto
          -18 -105 rlineto
          205 hlineto
          -15 -64 -8 -64 -2 -72 rrcurveto
          -215 hlineto
          -19 -106 rlineto
          235 hlineto
          -336 26 272 -220 396 hhcurveto
          66 hlineto
          22 126 rlineto
          -40 hlineto
          -355 -205 149 281 -35 hvcurveto
          553 103 callsubr
          -577 hlineto
          1 78 6 58 17 64 rrcurveto
          588 hlineto
          18 105 rlineto
          -570 hlineto
          14 36 rlineto
          239 97 200 124 290 hhcurveto
          72 79 -7 -10 40 hvcurveto
          22 124 rlineto
          11 -43 -91 9 -70 hhcurveto
          -366 -257 -168 -318 -121 hvcurveto
          -5 -14 -5 -13 -4 -13 rrcurveto
          endchar
        </CharString>
        <CharString name="F">
          1 callgsubr
          endchar
        </CharString>
        <CharString name="Fdotaccent">
          1 callgsubr
          732 43 callgsubr
          endchar
        </CharString>
        <CharString name="G">
          -98 callsubr
          endchar
        </CharString>
        <CharString name="Gacute">
          -98 callsubr
          -473 1243 -68 callsubr
          endchar
        </CharString>
        <CharString name="Gammagreek">
          275 hmoveto
          137 hlineto
          233 1319 rlineto
          692 62 callsubr
          -829 hlineto
          endchar
        </CharString>
        <CharString name="Gbreve">
          -98 callsubr
          -321 1243 rmoveto
          16 callgsubr
          -118 hlineto
          -52 callgsubr
          endchar
        </CharString>
        <CharString name="Gcaron">
          -98 callsubr
          -391 1243 -81 callgsubr
          endchar
        </CharString>
        <CharString name="Gcircumflex">
          -98 callsubr
          -216 1540 -73 callsubr
          endchar
        </CharString>
        <CharString name="Gcommaaccent">
          -98 callsubr
          -592 -877 -44 callgsubr
        </CharString>
        <CharString name="Gdotaccent">
          -98 callsubr
          -298 1286 -104 callgsubr
          endchar
        </CharString>
        <CharString name="Gecyrillic">
          1462 1443 rmoveto
          -1138 -12 callsubr
          rlineto
          endchar
        </CharString>
        <CharString name="Geupturncyrillic">
          1510 1716 rmoveto
          -128 hlineto
          -48 -273 rlineto
          -1010 -12 callsubr
          22 125 rlineto
          endchar
        </CharString>
        <CharString name="Gjecyrillic">
          1462 1443 rmoveto
          -1138 -12 callsubr
          rlineto
          -77 596 rmoveto
          -184 hlineto
          -310 -297 rlineto
          168 hlineto
          endchar
        </CharString>
        <CharString name="Gmacron">
          -98 callsubr
          6 1340 -95 callsubr
          endchar
        </CharString>
        <CharString name="H">
          -73 callgsubr
          endchar
        </CharString>
        <CharString name="Hardsigncyrillic">
          627 888 rmoveto
          97 555 rlineto
          -442 hlineto
          -21 -124 rlineto
          306 128 callsubr
          411 hlineto
          338 184 180 331 229 -142 148 -220 hvcurveto
          -301 -126 rmoveto
          274 hlineto
          160 93 -97 -167 -239 -131 -132 -240 hvcurveto
          -268 hlineto
          endchar
        </CharString>
        <CharString name="Hbar">
          444 801 rmoveto
          52 294 rlineto
          660 hlineto
          -52 -294 rlineto
          -682 -124 rmoveto
          660 110 callgsubr
          193 1095 rlineto
          125 -20 callgsubr
          -125 hlineto
          41 237 rlineto
          -137 hlineto
          -41 -237 rlineto
          -660 hlineto
          41 237 rlineto
          -137 hlineto
          -41 -237 rlineto
          -125 -39 callgsubr
          125 hlineto
          -193 -1095 rlineto
          137 hlineto
          endchar
        </CharString>
        <CharString name="Hbrevebelow">
          -73 callgsubr
          -377 -478 -74 callsubr
        </CharString>
        <CharString name="Hcaron">
          -73 callgsubr
          -106 1617 -81 callgsubr
          endchar
        </CharString>
        <CharString name="Hcedilla">
          303 hmoveto
          119 677 rlineto
          660 110 callgsubr
          254 1443 rlineto
          -137 hlineto
          67 callsubr
          -660 hlineto
          113 642 rlineto
          -23 callgsubr
          -25 -141 -14 -80 rlineto
          33 51 callsubr
          endchar
        </CharString>
        <CharString name="Hcircumflex">
          -73 callgsubr
          69 64 callgsubr
          endchar
        </CharString>
        <CharString name="Hdieresis">
          -73 callgsubr
          -208 86 callsubr
          382 hmoveto
          -105 callgsubr
          endchar
        </CharString>
        <CharString name="Hdotaccent">
          -73 callgsubr
          -13 43 callgsubr
          endchar
        </CharString>
        <CharString name="Hdotbelow">
          -73 callgsubr
          -388 -30 callsubr
          endchar
        </CharString>
        <CharString name="I">
          991 hmoveto
          36 callgsubr
        </CharString>
        <CharString name="IAcyrillic">
          1105 579 -60 callgsubr
        </CharString>
        <CharString name="IJ">
          862 -30 -8 callsubr
        </CharString>
        <CharString name="IJacute">
          515 -1 callsubr
          307 -297 -68 callsubr
          -580 -1944 -8 callsubr
        </CharString>
        <CharString name="IUcyrillic">
          -90 callgsubr
          endchar
        </CharString>
        <CharString name="Iacute">
          991 hmoveto
          -97 callgsubr
          500 -1 callsubr
          endchar
        </CharString>
        <CharString name="Ibreve">
          991 hmoveto
          -97 callgsubr
          652 1617 rmoveto
          16 callgsubr
          -118 hlineto
          -52 callgsubr
          endchar
        </CharString>
        <CharString name="Icaron">
          991 hmoveto
          -97 callgsubr
          582 1617 -81 callgsubr
          endchar
        </CharString>
        <CharString name="Icircumflex">
          991 hmoveto
          -97 callgsubr
          757 64 callgsubr
          endchar
        </CharString>
        <CharString name="Icyrillic">
          991 hmoveto
          36 callgsubr
        </CharString>
        <CharString name="Idblgrave">
          942 -31 callsubr
          206 30 callgsubr
        </CharString>
        <CharString name="Idieresis">
          991 hmoveto
          -97 callgsubr
          480 86 callsubr
          382 hmoveto
          -105 callgsubr
          endchar
        </CharString>
        <CharString name="Idieresisacute">
          991 hmoveto
          -97 callgsubr
          548 1829 rmoveto
          159 hlineto
          69 callgsubr
          -343 -478 rmoveto
          -65 callsubr
          364 hmoveto
          -65 callsubr
          endchar
        </CharString>
        <CharString name="Idotaccent">
          991 hmoveto
          -97 callgsubr
          675 43 callgsubr
          endchar
        </CharString>
        <CharString name="Idotbelow">
          991 hmoveto
          -97 callgsubr
          299 -30 callsubr
          endchar
        </CharString>
        <CharString name="Iecyrillic">
          1094 124 -22 callgsubr
        </CharString>
        <CharString name="Igrave">
          753 -25 callsubr
          32 30 callgsubr
        </CharString>
        <CharString name="Ihookabove">
          991 hmoveto
          -97 callgsubr
          508 1808 -56 callgsubr
          endchar
        </CharString>
        <CharString name="Iicyrillic">
          416 1443 -57 callsubr
        </CharString>
        <CharString name="Iinvertedbreve">
          991 hmoveto
          -97 callgsubr
          715 1914 -51 callsubr
        </CharString>
        <CharString name="Iishortcyrillic">
          1153 1914 rmoveto
          -97 callsubr
          -57 callgsubr
          -858 -471 -57 callsubr
        </CharString>
        <CharString name="Imacron">
          991 hmoveto
          -97 callgsubr
          979 44 callgsubr
          endchar
        </CharString>
        <CharString name="Iocyrillic">
          1094 124 -102 callgsubr
          -293 86 callsubr
          382 hmoveto
          -105 callgsubr
          endchar
        </CharString>
        <CharString name="Iogonek">
          782 hmoveto
          -10 vlineto
          -103 -53 -50 -71 -94 22 callgsubr
          146 44 hvcurveto
          20 111 -96 callsubr
          endchar
        </CharString>
        <CharString name="Iotadieresisgreek">
          991 hmoveto
          -97 callgsubr
          480 86 callsubr
          382 hmoveto
          -105 callgsubr
          endchar
        </CharString>
        <CharString name="Iotagreek">
          991 hmoveto
          36 callgsubr
        </CharString>
        <CharString name="Iotatonosgreek">
          1184 hmoveto
          -97 callgsubr
          -194 1111 -33 callgsubr
          endchar
        </CharString>
        <CharString name="Iotatonosgreek.1">
          837 hmoveto
          -1 callgsubr
          -364 1111 -33 callgsubr
          endchar
        </CharString>
        <CharString name="Itilde">
          991 hmoveto
          -97 callgsubr
          500 1797 -70 callgsubr
        </CharString>
        <CharString name="Itildebelow">
          991 hmoveto
          -97 callgsubr
          154 -302 -103 callgsubr
          endchar
        </CharString>
        <CharString name="J">
          -28 callgsubr
          endchar
        </CharString>
        <CharString name="Jcircumflex">
          -28 callgsubr
          461 1944 -73 callsubr
          endchar
        </CharString>
        <CharString name="Jecyrillic">
          -28 callgsubr
          endchar
        </CharString>
        <CharString name="K">
          -71 callgsubr
          endchar
        </CharString>
        <CharString name="Kacute">
          -71 callgsubr
          -423 -1 callsubr
          endchar
        </CharString>
        <CharString name="Kacyrillic">
          559 33 callgsubr
          36 callsubr
          169 hlineto
          -610 735 72 callgsubr
          endchar
        </CharString>
        <CharString name="Kappagreek">
          -71 callgsubr
          endchar
        </CharString>
        <CharString name="Kcaron">
          -71 callgsubr
          -341 1617 -81 callgsubr
          endchar
        </CharString>
        <CharString name="Kcommaaccent">
          -71 callgsubr
          -585 -503 -44 callgsubr
        </CharString>
        <CharString name="Kdotbelow">
          -71 callgsubr
          -597 -30 callsubr
          endchar
        </CharString>
        <CharString name="Kjecyrillic">
          731 -1 callsubr
          -482 -471 rmoveto
          36 callsubr
          169 hlineto
          -610 735 72 callgsubr
          endchar
        </CharString>
        <CharString name="Klinebelow">
          -71 callgsubr
          -288 -386 -95 callsubr
          endchar
        </CharString>
        <CharString name="L">
          -42 callgsubr
          endchar
        </CharString>
        <CharString name="Lacute">
          -42 callgsubr
          -628 -1 callsubr
          endchar
        </CharString>
        <CharString name="Lambdagreek">
          108 hmoveto
          143 hlineto
          609 1264 rlineto
          2 hlineto
          158 -1264 88 callsubr
          -197 27 callsubr
          endchar
        </CharString>
        <CharString name="Lcaron">
          1013 33 callgsubr
          -83 -473 rlineto
          94 hlineto
          119 473 rlineto
          -7 -1319 rmoveto
          -703 -35 callsubr
          839 hlineto
          endchar
        </CharString>
        <CharString name="Lcircumflexbelow">
          -42 callgsubr
          -532 -169 -101 callgsubr
          endchar
        </CharString>
        <CharString name="Lcommaaccent">
          -42 callgsubr
          -465 -503 -44 callgsubr
        </CharString>
        <CharString name="Ldot">
          -42 callgsubr
          32 884 -104 callgsubr
          endchar
        </CharString>
        <CharString name="Ldotbelow">
          -42 callgsubr
          -477 -30 callsubr
          endchar
        </CharString>
        <CharString name="Ldotbelowmacron">
          -42 callgsubr
          -477 -30 callsubr
          328 2154 -95 callsubr
          endchar
        </CharString>
        <CharString name="Ljecyrillic">
          872 762 rmoveto
          123 hlineto
          122 70 -92 -160 -231 -126 -160 -181 hvcurveto
          -121 hlineto
          -209 1206 rmoveto
          292 hlineto
          -234 -1324 rlineto
          260 hlineto
          279 173 190 335 217 -116 137 -184 hvcurveto
          -127 hlineto
          101 563 rlineto
          -552 hlineto
          -92 -472 rlineto
          -669 -130 -44 -174 -104 hhcurveto
          -12 -21 6 4 -9 hvcurveto
          -27 -135 rlineto
          -6 18 27 -5 30 hhcurveto
          193 54 188 779 153 hvcurveto
          endchar
        </CharString>
        <CharString name="Llinebelow">
          -42 callgsubr
          -168 -386 -95 callsubr
          endchar
        </CharString>
        <CharString name="Lslash">
          433 124 rmoveto
          97 552 545 284 24 137 -546 -290 112 636 rlineto
          -136 hlineto
          -126 -716 -208 -110 -22 -127 207 108 -105 -598 rlineto
          839 hlineto
          22 124 rlineto
          endchar
        </CharString>
        <CharString name="M">
          -67 callgsubr
          endchar
        </CharString>
        <CharString name="Macute">
          -67 callgsubr
          543 -1 callsubr
          endchar
        </CharString>
        <CharString name="Mdotaccent">
          -67 callgsubr
          718 43 callgsubr
          endchar
        </CharString>
        <CharString name="Mdotbelow">
          -67 callgsubr
          343 -30 callsubr
          endchar
        </CharString>
        <CharString name="Mugreek">
          -67 callgsubr
          endchar
        </CharString>
        <CharString name="N">
          290 hmoveto
          -83 callgsubr
          endchar
        </CharString>
        <CharString name="Nacute">
          290 hmoveto
          -83 callgsubr
          609 -1 callsubr
          endchar
        </CharString>
        <CharString name="Ncaron">
          290 hmoveto
          -83 callgsubr
          691 1617 -81 callgsubr
          endchar
        </CharString>
        <CharString name="Ncircumflexbelow">
          290 hmoveto
          -83 callgsubr
          356 -169 -101 callgsubr
          endchar
        </CharString>
        <CharString name="Ncommaaccent">
          290 hmoveto
          -83 callgsubr
          423 -503 -44 callgsubr
        </CharString>
        <CharString name="Ndotaccent">
          290 hmoveto
          -83 callgsubr
          784 43 callgsubr
          endchar
        </CharString>
        <CharString name="Ndotbelow">
          290 hmoveto
          -83 callgsubr
          411 -30 callsubr
          endchar
        </CharString>
        <CharString name="Ngrave">
          749 -25 callsubr
          -665 -1617 rmoveto
          -83 callgsubr
          endchar
        </CharString>
        <CharString name="Njecyrillic">
          245 hmoveto
          119 677 rlineto
          367 hlineto
          -119 -677 rlineto
          236 hlineto
          291 155 167 316 201 -109 111 -196 hvcurveto
          -106 hlineto
          114 648 20 callgsubr
          -114 -648 rlineto
          -367 hlineto
          114 648 46 callsubr
          747 677 rmoveto
          111 hlineto
          121 67 -76 -135 -222 -108 -127 -188 hvcurveto
          -101 hlineto
          endchar
        </CharString>
        <CharString name="Nlinebelow">
          290 hmoveto
          -83 callgsubr
          720 -386 -95 callsubr
          endchar
        </CharString>
        <CharString name="Ntilde">
          290 hmoveto
          -83 callgsubr
          609 1797 -70 callgsubr
        </CharString>
        <CharString name="Nugreek">
          290 hmoveto
          -83 callgsubr
          endchar
        </CharString>
        <CharString name="NumberSignCyrillic">
          125 callsubr
          132 77 callsubr
          -129 1158 rlineto
          -159 -80 callgsubr
          1274 843 rmoveto
          22 124 rlineto
          -336 31 callgsubr
          238 269 rmoveto
          95 76 77 95 95 -76 77 -95 -95 -76 -77 -95 -95 76 -77 95 hvcurveto
          endchar
        </CharString>
        <CharString name="O">
          -106 callgsubr
          endchar
        </CharString>
        <CharString name="OE">
          329 914 rmoveto
          289 51 98 141 149 hhcurveto
          143 72 -115 -230 -97 -5 -60 -15 -71 hvcurveto
          -45 -253 rlineto
          -278 -50 -104 -140 -157 hhcurveto
          -122 -78 120 187 84 8 99 14 92 hvcurveto
          433 -517 rmoveto
          6 hlineto
          -29 -165 rlineto
          563 hlineto
          20 115 rlineto
          -447 hlineto
          100 566 rlineto
          413 hlineto
          21 119 rlineto
          -413 hlineto
          93 527 rlineto
          447 hlineto
          20 116 rlineto
          -563 hlineto
          -43 -244 rlineto
          -6 hlineto
          175 -14 -101 103 -159 hhcurveto
          -225 -151 -184 -343 -58 hvcurveto
          -42 -252 rlineto
          -19 -115 -6 -70 -106 vvcurveto
          -275 116 -165 192 132 94 65 133 59 vhcurveto
          endchar
        </CharString>
        <CharString name="Oacute">
          -106 callgsubr
          68 1520 -68 callsubr
          endchar
        </CharString>
        <CharString name="Obreve">
          -106 callgsubr
          220 1520 rmoveto
          16 callgsubr
          -118 hlineto
          -52 callgsubr
          endchar
        </CharString>
        <CharString name="Ocaron">
          -106 callgsubr
          150 1520 -81 callgsubr
          endchar
        </CharString>
        <CharString name="Ocircumflex">
          -106 callgsubr
          325 1817 -73 callsubr
          endchar
        </CharString>
        <CharString name="Ocircumflexacute">
          -106 callgsubr
          439 1732 rmoveto
          149 hlineto
          281 217 rlineto
          -168 hlineto
          -384 -245 rmoveto
          -146 hlineto
          -65 callgsubr
          endchar
        </CharString>
        <CharString name="Ocircumflexdotbelow">
          -106 callgsubr
          325 1817 -73 callsubr
          -694 -2057 -104 callgsubr
          endchar
        </CharString>
        <CharString name="Ocircumflexgrave">
          -106 callgsubr
          642 1732 51 callgsubr
          -191 -28 rmoveto
          -146 hlineto
          -65 callgsubr
          endchar
        </CharString>
        <CharString name="Ocircumflexhookabove">
          -106 callgsubr
          317 1704 rmoveto
          -146 hlineto
          -65 callgsubr
          -145 404 -15 callgsubr
        </CharString>
        <CharString name="Ocircumflextilde">
          -106 callgsubr
          317 1704 -2 callgsubr
        </CharString>
        <CharString name="Ocyrillic">
          -106 callgsubr
          endchar
        </CharString>
        <CharString name="Odblgrave">
          942 -31 callsubr
          -378 -703 rmoveto
          -102 callsubr
          33 callsubr
          926 70 rmoveto
          9 66 6 66 47 78 callgsubr
          -53 -5 -67 -81 vvcurveto
          -316 192 -211 288 297 194 190 355 64 vhcurveto
          endchar
        </CharString>
        <CharString name="Odieresis">
          -106 callgsubr
          48 1569 rmoveto
          -105 callgsubr
          382 hmoveto
          -105 callgsubr
          endchar
        </CharString>
        <CharString name="Odieresismacron">
          -106 callgsubr
          399 1657 -24 callsubr
          169 258 rmoveto
          -638 hlineto
          -17 -98 rlineto
          638 hlineto
          -516 -160 -24 callsubr
          endchar
        </CharString>
        <CharString name="Odotaccent">
          -106 callgsubr
          243 1563 -104 callgsubr
          endchar
        </CharString>
        <CharString name="Odotaccentmacron">
          48 callgsubr
          -248 -1098 rmoveto
          -102 callsubr
          33 callsubr
          926 70 rmoveto
          9 66 6 66 47 78 callgsubr
          -53 -5 -67 -81 vvcurveto
          -316 192 -211 288 297 194 190 355 64 vhcurveto
          endchar
        </CharString>
        <CharString name="Odotbelow">
          -106 callgsubr
          -132 -537 -104 callgsubr
          endchar
        </CharString>
        <CharString name="Ograve">
          753 -25 callsubr
          -552 -703 rmoveto
          -102 callsubr
          33 callsubr
          926 70 rmoveto
          9 66 6 66 47 78 callgsubr
          -53 -5 -67 -81 vvcurveto
          -316 192 -211 288 297 194 190 355 64 vhcurveto
          endchar
        </CharString>
        <CharString name="Ohookabove">
          -106 callgsubr
          76 1711 -56 callgsubr
          endchar
        </CharString>
        <CharString name="Ohorn">
          408 914 -91 callsubr
          endchar
        </CharString>
        <CharString name="Ohornacute">
          101 callsubr
          -677 -1000 -91 callsubr
          endchar
        </CharString>
        <CharString name="Ohorndotbelow">
          13 callsubr
          -167 1354 -91 callsubr
          endchar
        </CharString>
        <CharString name="Ohorngrave">
          849 -25 callsubr
          216 -942 rmoveto
          18 96 12 99 62 vvcurveto
          142 -33 117 -64 91 vhcurveto
          1 1 0 1 vvcurveto
          119 -12 94 61 45 119 14 36 6 31 28 156 rrcurveto
          -122 hlineto
          -23 -125 rlineto
          -108 -20 -56 -56 -88 -123 -81 87 -179 hhcurveto
          -282 -205 -202 -336 -60 99 callgsubr
          -50 -5 -65 -86 vvcurveto
          -317 190 -210 286 296 193 191 354 64 vhcurveto
          -835 399 rmoveto
          276 50 145 156 205 hhcurveto
          214 142 -164 -249 -59 -3 -44 -8 -41 hvcurveto
          -43 -242 rlineto
          -289 -51 -144 -161 -207 hhcurveto
          -217 -140 165 256 46 5 48 11 70 hvcurveto
          endchar
        </CharString>
        <CharString name="Ohornhookabove">
          408 914 -91 callsubr
          -460 1293 -56 callgsubr
          endchar
        </CharString>
        <CharString name="Ohorntilde">
          1161 1887 rmoveto
          -98 -4 -37 -56 -61 -93 -31 166 -163 hhcurveto
          -125 -79 -99 -157 hvcurveto
          106 hlineto
          101 3 35 53 63 107 25 -165 155 hhcurveto
          123 81 101 154 hvcurveto
          -858 -973 -91 callsubr
          endchar
        </CharString>
        <CharString name="Ohungarumlaut">
          -106 callgsubr
          349 1520 7 callsubr
          -675 -297 7 callsubr
          endchar
        </CharString>
        <CharString name="Oinvertedbreve">
          -106 callgsubr
          283 1817 -51 callsubr
        </CharString>
        <CharString name="Omacron">
          -106 callgsubr
          547 1617 -95 callsubr
          endchar
        </CharString>
        <CharString name="Omacronacute">
          597 1616 68 callgsubr
          -411 -914 rmoveto
          -102 callsubr
          33 callsubr
          926 70 rmoveto
          9 66 6 66 47 78 callgsubr
          -53 -5 -67 -81 vvcurveto
          -316 192 -211 288 297 194 190 355 64 vhcurveto
          endchar
        </CharString>
        <CharString name="Omacrongrave">
          -106 callgsubr
          344 1732 19 callsubr
        </CharString>
        <CharString name="Omegagreek">
          827 1474 rmoveto
          -296 -204 -203 -348 -62 hvcurveto
          -33 -186 rlineto
          -8 -46 -4 -53 -54 vvcurveto
          -194 66 -174 108 -82 100 callgsubr
          -118 68 -65 170 -1 199 rlinecurve
          47 2 47 9 54 vhcurveto
          31 176 rlineto
          280 49 146 162 216 hhcurveto
          232 122 -152 -248 -52 -1 -42 -17 -98 hvcurveto
          -18 -101 -47 -265 -138 -193 -184 -61 rlinecurve
          -24 -135 rlineto
          432 hlineto
          22 124 rlineto
          -254 hlineto
          2 10 182 100 100 144 45 253 rlinecurve
          21 117 rlineto
          14 80 1 77 45 vvcurveto
          326 -165 198 -310 vhcurveto
          endchar
        </CharString>
        <CharString name="Omegatonosgreek">
          920 1474 rmoveto
          -279 -181 -190 -361 -64 hvcurveto
          -33 -186 rlineto
          -9 -50 -4 -53 -50 vvcurveto
          -185 72 -178 114 -87 100 callgsubr
          -124 75 -69 169 -1 193 rlinecurve
          46 4 66 10 56 vhcurveto
          31 176 rlineto
          293 52 119 129 206 hhcurveto
          209 99 -141 -259 -58 -2 -45 -16 -89 hvcurveto
          -18 -101 -45 -252 -130 -202 -194 -65 rlinecurve
          -24 -135 rlineto
          442 hlineto
          22 124 rlineto
          -264 hlineto
          2 10 193 106 91 152 43 239 rlinecurve
          21 117 rlineto
          13 74 2 86 52 vvcurveto
          336 -150 178 -287 vhcurveto
          -759 -363 -33 callgsubr
          endchar
        </CharString>
        <CharString name="Omicrongreek">
          -106 callgsubr
          endchar
        </CharString>
        <CharString name="Omicrontonosgreek">
          563 476 rmoveto
          62 4 58 11 63 vhcurveto
          49 276 rlineto
          266 47 142 145 158 hhcurveto
          179 81 -163 -200 -33 -7 -118 -16 -94 hvcurveto
          -36 -206 rlineto
          -283 -50 -132 -153 -174 hhcurveto
          -189 -67 182 198 hvcurveto
          757 44 rmoveto
          43 247 rlineto
          12 69 5 110 37 vvcurveto
          283 -130 207 -255 -258 -183 -187 -347 -61 vhcurveto
          -32 -180 rlineto
          -23 -130 -8 -88 -76 vvcurveto
          -299 138 -196 247 264 179 192 358 62 vhcurveto
          -1091 591 -33 callgsubr
          endchar
        </CharString>
        <CharString name="Oogonek">
          902 -410 -40 callsubr
        </CharString>
        <CharString name="Oogonekmacron">
          1254 44 callgsubr
          286 -2124 -40 callsubr
        </CharString>
        <CharString name="Oslash">
          1115 547 -41 callsubr
        </CharString>
        <CharString name="Oslashacute">
          1269 26 callsubr
          172 -1070 -41 callsubr
        </CharString>
        <CharString name="Otilde">
          -106 callgsubr
          68 1700 -70 callgsubr
        </CharString>
        <CharString name="Otildeacute">
          -106 callgsubr
          121 1777 rmoveto
          126 hlineto
          165 209 rlineto
          -147 hlineto
          -223 -393 -75 callgsubr
        </CharString>
        <CharString name="Otildedieresis">
          -106 callgsubr
          88 1778 rmoveto
          -65 callsubr
          364 hmoveto
          -65 callsubr
          -369 -185 -75 callgsubr
        </CharString>
        <CharString name="Otildemacron">
          -106 callgsubr
          565 1817 rmoveto
          17 98 119 callgsubr
          -17 -98 rlineto
          161 -224 -75 callgsubr
        </CharString>
        <CharString name="P">
          -66 callsubr
          endchar
        </CharString>
        <CharString name="Pacute">
          -66 callsubr
          256 950 -68 callsubr
          endchar
        </CharString>
        <CharString name="Pdotaccent">
          -66 callsubr
          431 993 -104 callgsubr
          endchar
        </CharString>
        <CharString name="Pecyrillic">
          1373 33 callgsubr
          -972 107 callsubr
          698 hlineto
          -232 -1318 rlineto
          137 hlineto
          endchar
        </CharString>
        <CharString name="Phigreek">
          712 59 rmoveto
          223 2 154 89 100 131 rrcurveto
          111 146 44 196 187 vvcurveto
          309 -145 198 -258 43 vhcurveto
          24 135 rlineto
          -136 hlineto
          -23 -128 -223 -2 -154 -89 -100 -131 rlinecurve
          -111 -146 -44 -196 -187 vvcurveto
          -309 145 -198 258 -43 vhcurveto
          -22 -124 80 callgsubr
          -383 677 rmoveto
          114 26 195 100 142 vhcurveto
          73 103 111 75 168 -2 -186 -1056 rcurveline
          -191 35 -101 148 246 vvcurveto
          904 188 rmoveto
          -114 -26 -195 -100 -142 vhcurveto
          -73 -103 -111 -75 -168 2 186 1056 rcurveline
          191 -35 101 -148 -246 vvcurveto
          endchar
        </CharString>
        <CharString name="Pigreek">
          175 hmoveto
          137 hlineto
          232 1319 rlineto
          642 hlineto
          -232 80 callsubr
          137 -33 callsubr
          -916 hlineto
          endchar
        </CharString>
        <CharString name="Psigreek">
          565 hmoveto
          136 hlineto
          60 340 316 7 192 173 58 331 rlinecurve
          113 callgsubr
          -136 hlineto
          -99 -566 rlineto
          -278 -49 -130 -133 -234 hhcurveto
          172 977 rlineto
          -136 hlineto
          -172 -976 rlineto
          -190 19 -88 101 182 vvcurveto
          34 5 40 13 74 vhcurveto
          92 526 rlineto
          -136 hlineto
          -90 -511 rlineto
          -11 -65 -6 -56 -52 vvcurveto
          -247 129 -138 260 -32 vhcurveto
          endchar
        </CharString>
        <CharString name="Q">
          1115 547 rmoveto
          -28 -159 -58 -121 -82 -77 -131 271 rcurveline
          -148 hlineto
          165 -342 rlineto
          -14 -39 -42 -8 -45 hhcurveto
          33 callsubr
          41 232 rlineto
          278 49 146 154 208 109 callgsubr
          -929 -91 rmoveto
          -11 -53 -5 -67 -81 vvcurveto
          -316 192 -211 288 72 65 11 22 60 vhcurveto
          83 -172 rlineto
          148 hlineto
          -114 235 121 90 83 151 37 208 rlinecurve
          -36 callsubr
          endchar
        </CharString>
        <CharString name="R">
          -96 callgsubr
          endchar
        </CharString>
        <CharString name="Racute">
          -96 callgsubr
          560 -1 callsubr
          endchar
        </CharString>
        <CharString name="Rcaron">
          -96 callgsubr
          642 1617 -81 callgsubr
          endchar
        </CharString>
        <CharString name="Rcommaaccent">
          -96 callgsubr
          395 -503 -44 callgsubr
        </CharString>
        <CharString name="Rdblgrave">
          923 -31 callsubr
          -436 -1617 rmoveto
          105 595 rlineto
          297 hlineto
          28 25 1 2 21 hvcurveto
          186 -598 rlineto
          145 hlineto
          -196 618 186 42 128 140 30 188 rlinecurve
          5 32 2 32 29 vvcurveto
          227 1 -143 135 -239 hhcurveto
          -461 -80 callgsubr
          367 1321 rmoveto
          315 hlineto
          175 97 -90 -154 -1 hvcurveto
          -28 -3 -29 -3 -18 vhcurveto
          -177 -27 -140 -112 -220 hhcurveto
          -300 hlineto
          endchar
        </CharString>
        <CharString name="Rdotaccent">
          -96 callgsubr
          735 43 callgsubr
          endchar
        </CharString>
        <CharString name="Rdotbelow">
          -96 callgsubr
          383 -30 callsubr
          endchar
        </CharString>
        <CharString name="Rdotbelowmacron">
          -96 callgsubr
          383 -30 callsubr
          656 2154 -95 callsubr
          endchar
        </CharString>
        <CharString name="Rhogreek">
          -66 callsubr
          endchar
        </CharString>
        <CharString name="Rinvertedbreve">
          -96 callgsubr
          775 1914 -51 callsubr
        </CharString>
        <CharString name="Rlinebelow">
          -96 callgsubr
          692 -386 -95 callsubr
          endchar
        </CharString>
        <CharString name="S">
          -103 callsubr
          endchar
        </CharString>
        <CharString name="Sacute">
          -103 callsubr
          405 1212 -68 callsubr
          endchar
        </CharString>
        <CharString name="Sacutedotaccent">
          -103 callsubr
          607 1212 -68 callsubr
          -477 -196 -104 callgsubr
          endchar
        </CharString>
        <CharString name="Scaron">
          -103 callsubr
          487 1212 -81 callgsubr
          endchar
        </CharString>
        <CharString name="Scarondotaccent">
          -103 callsubr
          537 1444 55 callsubr
          53 -272 -5 callgsubr
          endchar
        </CharString>
        <CharString name="Scedilla">
          1261 1071 rmoveto
          1 7 2 25 9 vvcurveto
          210 -186 151 -258 -279 -191 -160 -235 -180 98 -112 244 -97 vhcurveto
          83 -33 rlineto
          204 -81 68 -70 -125 vvcurveto
          -168 -142 -117 -204 -205 -148 117 161 6 1 10 1 16 vhcurveto
          -138 hlineto
          -3 -9 -1 -13 -27 vvcurveto
          -186 148 -146 212 -42 vhcurveto
          -67 -135 rlineto
          -69 52 vlineto
          -85 callsubr
          54 112 rlineto
          11 hlineto
          298 196 168 255 180 -88 99 -254 102 hvcurveto
          -97 39 rlineto
          -189 75 -68 73 125 vvcurveto
          153 135 109 190 179 127 -106 -148 -17 0 -4 -1 -2 vhcurveto
          endchar
        </CharString>
        <CharString name="Scircumflex">
          -103 callsubr
          662 1509 -73 callsubr
          endchar
        </CharString>
        <CharString name="Scommaaccent">
          -103 callsubr
          234 -928 -44 callgsubr
        </CharString>
        <CharString name="Sdotaccent">
          -103 callsubr
          580 1255 -104 callgsubr
          endchar
        </CharString>
        <CharString name="Sdotbelow">
          -103 callsubr
          222 -845 -104 callgsubr
          endchar
        </CharString>
        <CharString name="Sdotbelowdotaccent">
          -103 callsubr
          222 -845 -104 callgsubr
          358 2100 -104 callgsubr
          endchar
        </CharString>
        <CharString name="Shacyrillic">
          1191 hmoveto
          -43 callsubr
          -136 hlineto
          -232 80 callsubr
          -354 104 callgsubr
          -354 -35 callsubr
          endchar
        </CharString>
        <CharString name="Shchacyrillic">
          1090 -285 rmoveto
          126 hlineto
          72 409 rlineto
          -143 104 callgsubr
          -332 104 callgsubr
          -332 -35 callsubr
          1089 hlineto
          endchar
        </CharString>
        <CharString name="Sigmagreek">
          138 hmoveto
          925 hlineto
          22 124 rlineto
          -749 hlineto
          2 10 463 569 5 25 -262 579 2 12 rlineto
          732 62 callsubr
          -889 hlineto
          -20 -116 268 -597 -502 -628 rlineto
          endchar
        </CharString>
        <CharString name="Softsigncyrillic">
          460 761 rmoveto
          382 hlineto
          160 93 -96 -167 -241 -133 -134 -238 hvcurveto
          -376 hlineto
          361 -123 rmoveto
          338 184 180 331 228 -141 145 -221 hvcurveto
          -387 hlineto
          98 559 37 callgsubr
          endchar
        </CharString>
        <CharString name="T">
          701 hmoveto
          -56 callsubr
          endchar
        </CharString>
        <CharString name="Taugreek">
          701 hmoveto
          -56 callsubr
          endchar
        </CharString>
        <CharString name="Tbar">
          1378 1319 rmoveto
          21 124 rlineto
          -1024 hlineto
          -21 -124 rlineto
          444 hlineto
          -94 -531 rlineto
          -304 hlineto
          -19 -110 rlineto
          304 hlineto
          -120 -678 rlineto
          136 hlineto
          120 678 rlineto
          304 hlineto
          19 110 rlineto
          -304 hlineto
          94 531 rlineto
          endchar
        </CharString>
        <CharString name="Tcaron">
          701 hmoveto
          -56 callsubr
          292 1617 -81 callgsubr
          endchar
        </CharString>
        <CharString name="Tcedilla">
          565 -2 rmoveto
          -25 -140 -14 -79 rlineto
          32 51 callsubr
          25 142 -56 callsubr
          endchar
        </CharString>
        <CharString name="Tcircumflexbelow">
          701 hmoveto
          -56 callsubr
          -45 -169 -101 callgsubr
          endchar
        </CharString>
        <CharString name="Tcommaaccent">
          701 hmoveto
          -56 callsubr
          22 -503 -44 callgsubr
        </CharString>
        <CharString name="Tdotaccent">
          701 hmoveto
          -56 callsubr
          385 43 callgsubr
          endchar
        </CharString>
        <CharString name="Tdotbelow">
          701 hmoveto
          -56 callsubr
          10 -30 callsubr
          endchar
        </CharString>
        <CharString name="Tecyrillic">
          701 hmoveto
          -56 callsubr
          endchar
        </CharString>
        <CharString name="Thetagreek">
          479 663 rmoveto
          540 hlineto
          21 122 rlineto
          -540 hlineto
          748 -270 rmoveto
          -36 callsubr
          132 callgsubr
          -316 192 -211 288 297 194 190 355 64 vhcurveto
          -541 -418 rmoveto
          -219 -136 162 260 56 4 50 63 callgsubr
          231 -100 callsubr
          endchar
        </CharString>
        <CharString name="Thorn">
          449 133 callsubr
          136 hlineto
          65 369 rlineto
          386 hlineto
          261 169 146 253 32 hvcurveto
          243 31 -129 152 -236 hhcurveto
          -375 hlineto
          49 280 rlineto
          -70 -403 rmoveto
          334 hlineto
          196 81 -86 -186 -22 hvcurveto
          -179 -21 -119 -96 -201 hhcurveto
          -344 hlineto
          endchar
        </CharString>
        <CharString name="Tlinebelow">
          701 hmoveto
          -56 callsubr
          319 -386 -95 callsubr
          endchar
        </CharString>
        <CharString name="Tsecyrillic">
          1286 124 rmoveto
          -163 hlineto
          232 1319 rlineto
          -137 hlineto
          -232 80 callsubr
          -717 hlineto
          232 1319 37 callgsubr
          1026 50 callgsubr
          128 hlineto
          endchar
        </CharString>
        <CharString name="Tshecyrillic">
          505 hmoveto
          112 638 rlineto
          76 76 123 52 106 hhcurveto
          149 85 -93 -163 -31 -3 -33 -6 -36 hvcurveto
          -72 -410 rlineto
          137 hlineto
          71 402 rlineto
          8 46 4 44 40 vvcurveto
          228 -124 130 -218 -107 -124 -47 -69 -75 vhcurveto
          -6 hlineto
          97 545 rlineto
          369 62 callsubr
          -874 hlineto
          -21 -124 rlineto
          369 128 callsubr
          endchar
        </CharString>
        <CharString name="U">
          242 576 -28 callsubr
        </CharString>
        <CharString name="Uacute">
          242 576 -104 callsubr
          386 174 -68 callsubr
          endchar
        </CharString>
        <CharString name="Ubreve">
          242 576 -104 callsubr
          538 174 rmoveto
          16 callgsubr
          -118 hlineto
          -52 callgsubr
          endchar
        </CharString>
        <CharString name="Ucaron">
          242 576 -104 callsubr
          468 174 -81 callgsubr
          endchar
        </CharString>
        <CharString name="Ucircumflex">
          242 576 -104 callsubr
          643 471 -73 callsubr
          endchar
        </CharString>
        <CharString name="Ucircumflexbelow">
          242 576 -104 callsubr
          152 -1612 -101 callgsubr
          endchar
        </CharString>
        <CharString name="Ucyrillic">
          1450 1443 -69 callsubr
          endchar
        </CharString>
        <CharString name="Udblgrave">
          948 -31 callsubr
          -549 -1041 -28 callsubr
        </CharString>
        <CharString name="Udieresis">
          242 576 -104 callsubr
          366 223 rmoveto
          -105 callgsubr
          382 hmoveto
          -105 callgsubr
          endchar
        </CharString>
        <CharString name="Udieresisacute">
          242 576 -104 callsubr
          434 386 rmoveto
          159 hlineto
          69 callgsubr
          -343 -478 rmoveto
          -65 callsubr
          364 hmoveto
          -65 callsubr
          endchar
        </CharString>
        <CharString name="Udieresisbelow">
          242 576 -104 callsubr
          16 -1877 rmoveto
          -105 callgsubr
          382 hmoveto
          -105 callgsubr
          endchar
        </CharString>
        <CharString name="Udieresiscaron">
          242 576 -104 callsubr
          607 389 -5 callgsubr
          -108 -264 rmoveto
          -65 callsubr
          364 hmoveto
          -65 callsubr
          endchar
        </CharString>
        <CharString name="Udieresisgrave">
          748 1568 rmoveto
          -65 callsubr
          364 hmoveto
          -65 callsubr
          -267 478 rmoveto
          -173 hlineto
          205 -217 rlineto
          154 hlineto
          -789 -1253 -28 callsubr
        </CharString>
        <CharString name="Udieresismacron">
          242 576 -104 callsubr
          717 311 -24 callsubr
          169 258 rmoveto
          -638 hlineto
          -17 -98 rlineto
          638 hlineto
          -516 -160 -24 callsubr
          endchar
        </CharString>
        <CharString name="Udotbelow">
          242 576 -104 callsubr
          207 -1883 -104 callgsubr
          endchar
        </CharString>
        <CharString name="Ugrave">
          789 -25 callsubr
          -753 -1041 -28 callsubr
        </CharString>
        <CharString name="Uhookabove">
          242 576 -104 callsubr
          394 365 -56 callgsubr
          endchar
        </CharString>
        <CharString name="Uhorn">
          692 -30 -14 callgsubr
        </CharString>
        <CharString name="Uhornacute">
          692 -30 rmoveto
          276 194 178 304 54 hvcurveto
          157 891 rlineto
          -78 callsubr
          vhcurveto
          89 1647 -68 callsubr
          endchar
        </CharString>
        <CharString name="Uhorndotbelow">
          572 -30 callsubr
          120 410 -14 callgsubr
        </CharString>
        <CharString name="Uhorngrave">
          1373 1343 rmoveto
          -78 callsubr
          276 194 178 304 54 vhcurveto
          -361 1462 117 callsubr
        </CharString>
        <CharString name="Uhornhookabove">
          789 1808 -56 callgsubr
          -97 -1936 -14 callgsubr
        </CharString>
        <CharString name="Uhorntilde">
          692 -30 rmoveto
          276 194 178 304 54 hvcurveto
          157 891 rlineto
          -78 callsubr
          vhcurveto
          89 1827 -70 callgsubr
        </CharString>
        <CharString name="Uhungarumlaut">
          242 576 -104 callsubr
          597 174 7 callsubr
          -675 -297 7 callsubr
          endchar
        </CharString>
        <CharString name="Uinvertedbreve">
          242 576 -104 callsubr
          562 471 -51 callsubr
        </CharString>
        <CharString name="Umacron">
          242 576 -104 callsubr
          847 271 -95 callsubr
          endchar
        </CharString>
        <CharString name="Umacrondieresis">
          242 576 -104 callsubr
          368 432 rmoveto
          -65 callsubr
          -169 -258 16 callsubr
          516 160 rmoveto
          -65 callsubr
          endchar
        </CharString>
        <CharString name="Uogonek">
          905 -410 rmoveto
          36 21 2 7 25 hvcurveto
          19 105 rlineto
          -3 -13 -16 -1 -19 hhcurveto
          -78 -49 39 61 79 37 52 158 144 hvcurveto
          102 92 58 115 30 170 174 991 rcurveline
          -134 hlineto
          -174 -980 rlineto
          -220 -39 -154 -147 -192 hhcurveto
          -201 -132 138 211 38 5 51 7 30 hvcurveto
          155 879 rlineto
          -135 hlineto
          -154 -867 rlineto
          -10 -46 -4 -45 -54 vvcurveto
          -279 184 -182 280 51 52 12 20 36 vhcurveto
          -10 vlineto
          -93 -71 -42 -70 -85 vvcurveto
          -100 90 -76 119 vhcurveto
          endchar
        </CharString>
        <CharString name="Upsilondieresisgreek">
          -81 callsubr
          175 86 callsubr
          382 hmoveto
          -105 callgsubr
          endchar
        </CharString>
        <CharString name="Upsilongreek">
          -81 callsubr
          endchar
        </CharString>
        <CharString name="Upsilontonosgreek">
          859 hmoveto
          110 627 516 816 rlineto
          -164 hlineto
          -390 -680 rlineto
          -10 hlineto
          -162 680 rlineto
          -144 hlineto
          219 -817 -110 -626 rlineto
          -506 1111 -33 callgsubr
          endchar
        </CharString>
        <CharString name="Uring">
          242 576 -104 callsubr
          517 121 0 callsubr
        </CharString>
        <CharString name="Ushortcyrillic">
          1450 1443 -69 callsubr
          327 1544 rmoveto
          -97 callsubr
          -57 callgsubr
          endchar
        </CharString>
        <CharString name="Utilde">
          242 576 -104 callsubr
          386 354 -70 callgsubr
        </CharString>
        <CharString name="Utildeacute">
          242 576 -104 callsubr
          439 431 rmoveto
          126 hlineto
          165 209 rlineto
          -147 hlineto
          -223 -393 -75 callgsubr
        </CharString>
        <CharString name="Utildebelow">
          242 576 -104 callsubr
          62 -1745 -103 callgsubr
          endchar
        </CharString>
        <CharString name="V">
          8 callgsubr
          endchar
        </CharString>
        <CharString name="Vdotbelow">
          8 callgsubr
          -722 -1883 -104 callgsubr
          endchar
        </CharString>
        <CharString name="Vecyrillic">
          -89 callgsubr
          endchar
        </CharString>
        <CharString name="Vtilde">
          8 callgsubr
          -525 354 -70 callgsubr
        </CharString>
        <CharString name="W">
          12 callsubr
          endchar
        </CharString>
        <CharString name="Wacute">
          101 callsubr
          -279 -999 -59 callsubr
        </CharString>
        <CharString name="Wcircumflex">
          1032 64 callgsubr
          -463 -702 -59 callsubr
        </CharString>
        <CharString name="Wdieresis">
          1137 86 callsubr
          -382 hmoveto
          -105 callgsubr
          51 -751 -59 callsubr
        </CharString>
        <CharString name="Wdotaccent">
          82 callsubr
          -144 -745 -59 callsubr
        </CharString>
        <CharString name="Wdotbelow">
          13 callsubr
          231 1355 -59 callsubr
        </CharString>
        <CharString name="Wgrave">
          12 callsubr
          -44 999 117 callsubr
        </CharString>
        <CharString name="X">
          -49 callsubr
          endchar
        </CharString>
        <CharString name="Xacyrillic">
          -49 callsubr
          endchar
        </CharString>
        <CharString name="Xdieresis">
          -49 callsubr
          78 939 rmoveto
          -105 callgsubr
          382 hmoveto
          -105 callgsubr
          endchar
        </CharString>
        <CharString name="Xdotaccent">
          -49 callsubr
          273 933 -104 callgsubr
          endchar
        </CharString>
        <CharString name="Xigreek">
          165 hmoveto
          936 hlineto
          23 128 rlineto
          -936 hlineto
          174 547 rmoveto
          781 hlineto
          22 128 rlineto
          -781 hlineto
          13 512 rmoveto
          936 hlineto
          22 128 rlineto
          -936 hlineto
          endchar
        </CharString>
        <CharString name="Y">
          -81 callsubr
          endchar
        </CharString>
        <CharString name="Yacute">
          -81 callsubr
          195 -1 callsubr
          endchar
        </CharString>
        <CharString name="Ycircumflex">
          -81 callsubr
          452 64 callgsubr
          endchar
        </CharString>
        <CharString name="Ydieresis">
          -81 callsubr
          175 86 callsubr
          382 hmoveto
          -105 callgsubr
          endchar
        </CharString>
        <CharString name="Ydotaccent">
          -81 callsubr
          370 43 callgsubr
          endchar
        </CharString>
        <CharString name="Ydotbelow">
          -81 callsubr
          9 -30 callsubr
          endchar
        </CharString>
        <CharString name="Yericyrillic">
          390 761 -64 callgsubr
        </CharString>
        <CharString name="Ygrave">
          739 -25 callsubr
          -244 -1617 rmoveto
          110 628 644 815 rlineto
          -164 hlineto
          -527 -684 rlineto
          -10 hlineto
          -299 684 rlineto
          -144 hlineto
          365 -816 -110 -627 rlineto
          endchar
        </CharString>
        <CharString name="Yhookabove">
          -81 callsubr
          203 1808 -56 callgsubr
          endchar
        </CharString>
        <CharString name="Yicyrillic">
          991 hmoveto
          -97 callgsubr
          480 86 callsubr
          382 hmoveto
          -105 callgsubr
          endchar
        </CharString>
        <CharString name="Ymacron">
          -81 callsubr
          674 44 callgsubr
          endchar
        </CharString>
        <CharString name="Ytilde">
          -81 callsubr
          195 1797 -70 callgsubr
        </CharString>
        <CharString name="Z">
          -58 callgsubr
          endchar
        </CharString>
        <CharString name="Zacute">
          -58 callgsubr
          617 1508 -68 callsubr
          endchar
        </CharString>
        <CharString name="Zcaron">
          -58 callgsubr
          699 1508 -81 callgsubr
          endchar
        </CharString>
        <CharString name="Zcircumflex">
          -58 callgsubr
          874 1805 -73 callsubr
          endchar
        </CharString>
        <CharString name="Zdotaccent">
          -58 callgsubr
          792 1551 -104 callgsubr
          endchar
        </CharString>
        <CharString name="Zdotbelow">
          -58 callgsubr
          418 -549 -104 callgsubr
          endchar
        </CharString>
        <CharString name="Zecyrillic">
          -55 callgsubr
          endchar
        </CharString>
        <CharString name="Zetagreek">
          -58 callgsubr
          endchar
        </CharString>
        <CharString name="Zhecyrillic">
          -38 callgsubr
          endchar
        </CharString>
        <CharString name="Zlinebelow">
          -58 callgsubr
          727 -495 -95 callsubr
          endchar
        </CharString>
        <CharString name="a">
          -107 callgsubr
          endchar
        </CharString>
        <CharString name="aacute">
          911 1296 -72 callgsubr
          217 -775 -87 callgsubr
        </CharString>
        <CharString name="abreve">
          -107 callgsubr
          255 1160 -74 callsubr
        </CharString>
        <CharString name="abreveacute">
          -107 callgsubr
          190 1570 rmoveto
          142 87 callsubr
          -164 hlineto
          -197 -706 -74 callsubr
        </CharString>
        <CharString name="abrevedotbelow">
          -107 callgsubr
          255 1160 -94 callgsubr
          -302 -1698 -104 callgsubr
          endchar
        </CharString>
        <CharString name="abrevegrave">
          1134 14 callsubr
          -14 -1147 -87 callgsubr
        </CharString>
        <CharString name="abrevehookabove">
          -107 callgsubr
          255 1160 -94 callgsubr
          -137 596 47 callsubr
          endchar
        </CharString>
        <CharString name="abrevetilde">
          -107 callgsubr
          255 1160 -94 callgsubr
          -61 599 -103 callgsubr
          endchar
        </CharString>
        <CharString name="acaron">
          -107 callgsubr
          319 1198 -79 callgsubr
          endchar
        </CharString>
        <CharString name="acircumflex">
          -107 callgsubr
          215 1523 -101 callgsubr
          endchar
        </CharString>
        <CharString name="acircumflexacute">
          -107 callgsubr
          495 1570 19 callgsubr
          -539 -343 -101 callgsubr
          endchar
        </CharString>
        <CharString name="acircumflexdotbelow">
          -107 callgsubr
          215 1523 -101 callgsubr
          -430 -2061 -104 callgsubr
          endchar
        </CharString>
        <CharString name="acircumflexgrave">
          -107 callgsubr
          732 1570 rmoveto
          -155 296 rlineto
          -159 hlineto
          177 -296 rlineto
          -380 -47 -101 callgsubr
          endchar
        </CharString>
        <CharString name="acircumflexhookabove">
          -107 callgsubr
          215 1523 -101 callgsubr
          233 vmoveto
          -84 callgsubr
          endchar
        </CharString>
        <CharString name="acircumflextilde">
          -107 callgsubr
          194 1783 -103 callgsubr
          21 -260 -101 callgsubr
          endchar
        </CharString>
        <CharString name="acute">
          811 1296 8 callsubr
        </CharString>
        <CharString name="acutecmb">
          811 1296 8 callsubr
        </CharString>
        <CharString name="acutecmb.short">
          101 callsubr
          endchar
        </CharString>
        <CharString name="acutedotaccentcmb">
          713 1367 -104 callgsubr
          348 -71 8 callsubr
        </CharString>
        <CharString name="acutedotaccentcmb.short">
          977 -1 callsubr
          -477 -196 -104 callgsubr
          endchar
        </CharString>
        <CharString name="acyrillic">
          -107 callgsubr
          endchar
        </CharString>
        <CharString name="adblgrave">
          921 -42 callsubr
          236 -775 -87 callgsubr
        </CharString>
        <CharString name="adieresis">
          -107 callgsubr
          75 1207 rmoveto
          -105 callgsubr
          382 hmoveto
          -105 callgsubr
          endchar
        </CharString>
        <CharString name="adieresismacron">
          -107 callgsubr
          457 1446 rmoveto
          -50 callsubr
        </CharString>
        <CharString name="adotaccent">
          -107 callgsubr
          263 1209 -104 callgsubr
          endchar
        </CharString>
        <CharString name="adotbelow">
          -107 callgsubr
          -47 -538 -104 callgsubr
          endchar
        </CharString>
        <CharString name="adotmacron">
          -107 callgsubr
          637 1635 -95 callsubr
          264 -426 -104 callgsubr
          endchar
        </CharString>
        <CharString name="ae">
          -79 callsubr
          endchar
        </CharString>
        <CharString name="aeacute">
          879 1296 -72 callgsubr
          -71 -790 rmoveto
          -26 -149 rlineto
          -149 -26 -98 -106 -111 hhcurveto
          -88 -64 72 100 116 84 86 124 11 hvcurveto
          346 125 rmoveto
          12 68 rlineto
          179 32 90 108 118 hhcurveto
          108 69 -90 -141 -37 -4 -43 -6 -44 hvcurveto
          -64 -355 rmoveto
          -88 -17 -84 -67 -94 hhcurveto
          -116 -75 98 152 67 2 24 12 62 hvcurveto
          534 hlineto
          4 27 4 24 3 20 rrcurveto
          6 42 4 27 5 vvcurveto
          256 27 -109 177 -186 hhcurveto
          -116 -106 -64 -107 -62 hvcurveto
          -3 hlineto
          110 -35 -87 62 -119 hhcurveto
          -159 -123 -104 -155 -27 hvcurveto
          118 hlineto
          85 22 71 56 88 hhcurveto
          105 62 -76 -127 -21 -2 -24 -3 -20 hvcurveto
          -15 -86 -217 -19 rlineto
          -218 -19 -121 -121 -199 vvcurveto
          -156 107 -115 146 138 117 90 146 55 vhcurveto
          4 hlineto
          -143 17 105 -93 145 hhcurveto
          153 141 121 153 24 hvcurveto
          endchar
        </CharString>
        <CharString name="aemacron">
          -79 callsubr
          775 1275 -95 callsubr
          endchar
        </CharString>
        <CharString name="agrave">
          -107 callgsubr
          345 1198 rmoveto
          -180 332 rlineto
          -44 callsubr
          endchar
        </CharString>
        <CharString name="ahookabove">
          -107 callgsubr
          98 1379 47 callsubr
          endchar
        </CharString>
        <CharString name="ainvertedbreve">
          -107 callgsubr
          287 1479 -51 callgsubr
        </CharString>
        <CharString name="alphagreek">
          -40 callgsubr
          endchar
        </CharString>
        <CharString name="alphatonosgreek">
          -40 callgsubr
          1 318 -33 callgsubr
          endchar
        </CharString>
        <CharString name="amacron">
          -107 callgsubr
          575 1279 -95 callsubr
          endchar
        </CharString>
        <CharString name="ampersand">
          940 1160 rmoveto
          -20 -117 -63 -65 -195 -106 -82 140 -25 84 15 90 19 108 94 76 106 -8 105 -7 65 -86 -19 -109 rrcurveto
          92 -1160 rmoveto
          162 hlineto
          -148 233 99 132 60 154 30 203 rlinecurve
          -120 hlineto
          -32 -192 -37 -108 -67 -97 -263 463 rcurveline
          233 126 88 92 26 146 32 176 -105 131 -183 13 -182 13 -148 -113 -32 -177 -18 -102 33 -120 85 -145 -48 -26 rcurveline
          -205 -111 -113 -131 -24 -154 -36 -239 143 -173 249 -18 159 -11 159 58 128 116 rrcurveto
          -352 593 rmoveto
          296 -502 -105 -95 -137 -50 -130 9 rlinecurve
          -169 11 -100 124 24 168 18 128 82 92 173 90 rrcurveto
          endchar
        </CharString>
        <CharString name="anoteleia">
          800 805 92 callsubr
        </CharString>
        <CharString name="aogonek">
          622 98 rmoveto
          -141 -87 79 126 1 hvcurveto
          139 1 111 79 196 hhcurveto
          273 hlineto
          -27 -150 rlineto
          -150 -27 -148 -123 -152 hhcurveto
          287 -52 rmoveto
          -187 -98 -56 -62 -107 vvcurveto
          -108 88 -81 118 34 21 2 6 18 vhcurveto
          18 104 rlineto
          -3 -11 -2 0 -21 124 callgsubr
          107 604 rlineto
          21 103 3 25 63 vvcurveto
          175 -146 117 -217 -213 -169 -113 -163 -33 vhcurveto
          133 hlineto
          95 29 111 67 130 hhcurveto
          147 92 -78 -123 -33 -2 -24 -5 -33 hvcurveto
          -9 -50 rlineto
          -283 hlineto
          -295 -164 -124 -222 3 hvcurveto
          -181 2 131 -123 193 hhcurveto
          128 149 81 98 53 hvcurveto
          17 hlineto
          endchar
        </CharString>
        <CharString name="approxequal">
          579 763 rmoveto
          40 33 -23 -69 62 hvcurveto
          -79 70 66 -36 76 115 callgsubr
          -43 -54 -80 hhcurveto
          -37 -34 23 67 -64 hvcurveto
          82 -78 -64 35 -71 hhcurveto
          -158 -98 -103 -164 2 hvcurveto
          115 hlineto
          110 7 42 53 80 hhcurveto
          -74 -418 rmoveto
          41 34 -23 -67 60 hvcurveto
          -80 71 66 -35 75 115 callgsubr
          -44 -56 -79 hhcurveto
          -37 -31 21 70 -67 hvcurveto
          83 -79 -63 35 -71 hhcurveto
          -157 -99 -104 -163 2 hvcurveto
          115 hlineto
          109 7 41 52 81 hhcurveto
          endchar
        </CharString>
        <CharString name="aring">
          -107 callgsubr
          274 1253 -64 callsubr
        </CharString>
        <CharString name="aringacute">
          1004 18 callsubr
          86 -789 -87 callgsubr
        </CharString>
        <CharString name="aringbelow">
          -107 callgsubr
          -47 -597 -64 callsubr
        </CharString>
        <CharString name="asciicircum">
          867 1344 rmoveto
          17 hlineto
          124 -597 rlineto
          118 hlineto
          -158 696 rlineto
          -163 hlineto
          -402 -696 rlineto
          130 hlineto
          endchar
        </CharString>
        <CharString name="asciitilde">
          545 879 rmoveto
          -162 -110 -120 -177 hvcurveto
          -10 134 vlineto
          118 9 49 61 86 hhcurveto
          47 43 -28 -80 74 hvcurveto
          -87 84 73 -35 98 hhcurveto
          162 108 118 178 hvcurveto
          10 -132 vlineto
          -115 -8 -48 -64 -80 hhcurveto
          -54 -44 28 81 -74 hvcurveto
          87 -85 -73 35 -97 hhcurveto
          endchar
        </CharString>
        <CharString name="asterisk">
          1309 783 rmoveto
          -39 107 -463 -178 96 486 -113 20 -77 -490 -373 326 -73 -87 386 -311 -470 -161 39 -107 462 178 -95 -486 113 -20 77 490 373 -326 73 87 -385 311 rlineto
          endchar
        </CharString>
        <CharString name="at">
          689 -198 rmoveto
          83 71 9 16 37 hvcurveto
          19 105 rlineto
          -16 -38 -71 -10 -75 hhcurveto
          -276 -133 141 293 72 8 82 16 91 hvcurveto
          31 175 rlineto
          412 73 158 196 259 hhcurveto
          234 134 -138 -240 -47 -5 -51 -10 -55 hvcurveto
          -47 -265 rlineto
          -105 -19 -49 -43 -101 hhcurveto
          -146 hlineto
          66 376 rlineto
          2 12 2 19 7 vvcurveto
          65 -36 38 -63 -64 -44 -45 -81 -14 vhcurveto
          -62 -356 rlineto
          -1 -7 -3 -22 -10 vvcurveto
          -64 34 -37 58 vhcurveto
          279 hlineto
          152 91 84 169 30 hvcurveto
          123 callgsubr
          10 58 5 54 51 vvcurveto
          294 -173 171 -295 -317 -217 -246 -446 -78 vhcurveto
          -38 -214 rlineto
          -16 -103 -7 -77 -59 vvcurveto
          -349 168 -178 330 vhcurveto
          endchar
        </CharString>
        <CharString name="atilde">
          -107 callgsubr
          114 1333 -103 callgsubr
          endchar
        </CharString>
        <CharString name="austral">
          858 1264 rmoveto
          2 hlineto
          65 -437 rlineto
          -287 hlineto
          331 -295 rmoveto
          -479 hlineto
          95 189 rlineto
          356 hlineto
          108 -721 rmoveto
          137 hlineto
          -69 427 rlineto
          137 hlineto
          19 105 rlineto
          -173 hlineto
          -30 189 rlineto
          236 103 callsubr
          -272 hlineto
          -99 616 118 callsubr
          -316 -616 rlineto
          -272 hlineto
          -19 -106 rlineto
          237 hlineto
          -97 -189 rlineto
          -173 hlineto
          -19 -105 rlineto
          138 hlineto
          -219 -427 114 callgsubr
          215 427 rlineto
          547 hlineto
          endchar
        </CharString>
        <CharString name="b">
          -76 callgsubr
          endchar
        </CharString>
        <CharString name="backslash">
          1034 -99 rmoveto
          -422 1641 58 callsubr
          422 -1641 rlineto
          endchar
        </CharString>
        <CharString name="baht">
          900 1320 rmoveto
          152 -11 78 -76 -1 -135 -1 -166 -127 -114 -191 -10 rrcurveto
          -121 -687 rmoveto
          100 567 rlineto
          197 -4 110 -93 -163 vvcurveto
          -185 -158 -122 -240 vhcurveto
          -336 hmoveto
          100 567 rlineto
          218 hlineto
          -100 -567 rlineto
          -6 1201 rmoveto
          217 hlineto
          -90 -515 rlineto
          -218 hlineto
          466 792 rmoveto
          -109 hlineto
          -27 -156 rlineto
          -355 -80 callgsubr
          354 hlineto
          -26 -150 rlineto
          109 hlineto
          26 150 rlineto
          20 hlineto
          338 208 162 265 2 hvcurveto
          1 169 -95 122 -157 31 1 9 rcurveline
          164 34 121 152 2 174 2 196 -131 121 -222 8 rrcurveto
          endchar
        </CharString>
        <CharString name="bar">
          605 -483 rmoveto
          357 2025 rlineto
          -114 hlineto
          -357 -2025 rlineto
          endchar
        </CharString>
        <CharString name="bdotaccent">
          -76 callgsubr
          283 1208 -104 callgsubr
          endchar
        </CharString>
        <CharString name="bdotbelow">
          -76 callgsubr
          -148 -539 -104 callgsubr
          endchar
        </CharString>
        <CharString name="becyrillic">
          714 106 rmoveto
          -191 -126 146 220 62 7 57 14 53 hvcurveto
          185 48 128 116 172 hhcurveto
          188 131 -134 -191 -84 -2 -26 -13 -59 hvcurveto
          -215 -46 -134 -130 -176 hhcurveto
          -270 759 rmoveto
          349 103 131 121 275 hhcurveto
          183 105 14 35 80 hvcurveto
          22 122 rlineto
          -35 -93 -137 -21 -143 hhcurveto
          -376 -189 -187 -478 -110 hvcurveto
          -24 -104 -13 -98 -90 vvcurveto
          -314 170 -196 271 263 186 168 288 56 vhcurveto
          17 91 3 25 71 vvcurveto
          258 -170 174 -252 -167 -119 -65 -128 -69 vhcurveto
          endchar
        </CharString>
        <CharString name="betagreek">
          143 -365 rmoveto
          128 hlineto
          103 589 rlineto
          6 hlineto
          -144 40 146 -98 175 hhcurveto
          305 151 206 261 176 -91 138 -142 36 hvcurveto
          1 9 rlineto
          170 53 95 138 194 vvcurveto
          204 -150 127 -221 -260 -148 -134 -310 -54 vhcurveto
          334 -976 rmoveto
          -174 -141 126 186 60 5 17 12 69 hvcurveto
          88 486 rlineto
          252 46 102 108 177 hhcurveto
          160 94 -84 -143 -201 -112 -105 -208 hvcurveto
          -102 hlineto
          -21 -19 callgsubr
          79 hlineto
          197 134 -125 -186 -209 -131 -133 -205 hvcurveto
          endchar
        </CharString>
        <CharString name="bitcoin">
          937 755 rmoveto
          190 34 129 142 184 vvcurveto
          139 -88 105 -148 39 vhcurveto
          45 209 rlineto
          -105 hlineto
          -41 -193 rlineto
          -164 hlineto
          41 193 rlineto
          -105 hlineto
          -42 -193 rlineto
          -153 hlineto
          -295 -1385 rlineto
          154 hlineto
          -41 -194 rlineto
          105 hlineto
          41 194 rlineto
          164 hlineto
          -41 -194 rlineto
          104 hlineto
          42 196 rlineto
          277 19 184 179 233 vvcurveto
          149 -105 104 -151 27 vhcurveto
          -330 556 rmoveto
          235 hlineto
          188 93 -78 -132 -168 -143 -116 -216 hvcurveto
          -262 hlineto
          -140 -658 rmoveto
          116 543 rlineto
          271 hlineto
          202 103 -87 -151 -171 -155 -134 -220 hvcurveto
          endchar
        </CharString>
        <CharString name="blinebelow">
          -76 callgsubr
          161 -485 -95 callsubr
          endchar
        </CharString>
        <CharString name="braceleft">
          968 -99 rmoveto
          18 105 rlineto
          -113 hlineto
          -118 -38 28 87 29 4 36 8 44 hvcurveto
          46 261 rlineto
          3 14 1 15 17 vvcurveto
          132 -107 91 -169 12 vhcurveto
          3 15 rlineto
          219 112 61 131 23 hvcurveto
          46 261 rlineto
          164 29 22 19 166 hhcurveto
          113 hlineto
          19 110 rlineto
          -127 hlineto
          -239 -67 -53 -217 -39 hvcurveto
          -38 -224 rlineto
          -142 -25 -92 -47 -254 hhcurveto
          -24 -134 rlineto
          195 103 -70 -134 -15 -2 -19 -3 -21 hvcurveto
          -40 -224 rlineto
          -8 -45 -4 -40 -35 vvcurveto
          -150 74 -62 178 vhcurveto
          endchar
        </CharString>
        <CharString name="braceright">
          542 1533 rmoveto
          -18 -105 rlineto
          113 hlineto
          118 38 -28 -87 -29 -4 -36 -8 -44 hvcurveto
          -46 -261 rlineto
          -3 -14 -1 -15 -17 vvcurveto
          -132 107 -91 169 -12 vhcurveto
          -3 -15 rlineto
          -219 -112 -61 -131 -23 hvcurveto
          -46 -261 rlineto
          -164 -29 -22 -19 -166 hhcurveto
          -113 hlineto
          -19 -110 rlineto
          127 hlineto
          239 67 53 217 39 hvcurveto
          38 224 rlineto
          142 25 92 47 254 hhcurveto
          24 134 rlineto
          -195 -103 70 134 15 2 19 3 21 hvcurveto
          40 224 rlineto
          8 45 4 40 35 vvcurveto
          150 -74 62 -178 vhcurveto
          endchar
        </CharString>
        <CharString name="bracketleft">
          660 1542 rmoveto
          -289 -1641 rlineto
          490 hlineto
          17 99 rlineto
          -364 -33 callsubr
          364 hlineto
          18 99 rlineto
          endchar
        </CharString>
        <CharString name="bracketright">
          660 1542 rmoveto
          -18 -99 rlineto
          364 -80 callgsubr
          -364 hlineto
          -17 -99 rlineto
          490 hlineto
          289 1641 rlineto
          endchar
        </CharString>
        <CharString name="breve">
          -27 callgsubr
          endchar
        </CharString>
        <CharString name="breveacutecmb">
          810 1668 rmoveto
          142 87 callsubr
          -164 hlineto
          -197 -706 -74 callsubr
        </CharString>
        <CharString name="breveacutecmb.short">
          840 1838 rmoveto
          139 hlineto
          220 208 rlineto
          -158 hlineto
          -108 -467 rmoveto
          185 138 105 154 27 hvcurveto
          -119 hlineto
          7 callgsubr
          vhcurveto
          endchar
        </CharString>
        <CharString name="brevebelowcmb">
          586 -478 -74 callsubr
        </CharString>
        <CharString name="brevecmb">
          -27 callgsubr
          endchar
        </CharString>
        <CharString name="brevecmb.short">
          927 1617 rmoveto
          16 callgsubr
          -118 hlineto
          -52 callgsubr
          endchar
        </CharString>
        <CharString name="brevecyrillic">
          865 1258 rmoveto
          -57 callgsubr
          -121 hlineto
          -97 callsubr
          endchar
        </CharString>
        <CharString name="brevecyrillic.short">
          865 1616 rmoveto
          -57 callgsubr
          -121 hlineto
          -97 callsubr
          endchar
        </CharString>
        <CharString name="brevegravecmb">
          1132 14 callsubr
          endchar
        </CharString>
        <CharString name="brevegravecmb.short">
          95 callsubr
          -2 -259 rmoveto
          185 138 105 154 27 hvcurveto
          -119 hlineto
          7 callgsubr
          vhcurveto
          endchar
        </CharString>
        <CharString name="brevehookabovecmb">
          -27 callgsubr
          -137 596 47 callsubr
          endchar
        </CharString>
        <CharString name="brevehookabovecmb.short">
          801 1975 rmoveto
          106 callgsubr
          65 -58 rlineto
          105 callgsubr
          114 -478 rmoveto
          193 134 98 161 26 hvcurveto
          -119 hlineto
          75 callgsubr
          endchar
        </CharString>
        <CharString name="brevetildecmb">
          -27 callgsubr
          -61 599 -103 callgsubr
          endchar
        </CharString>
        <CharString name="brevetildecmb.short">
          925 1579 rmoveto
          176 131 82 136 41 hvcurveto
          -121 hlineto
          -75 -32 -83 -47 -101 hhcurveto
          -111 -76 44 78 -23 hvcurveto
          -114 hlineto
          -135 21 119 -83 173 hhcurveto
          -106 392 rmoveto
          116 callgsubr
          -105 hlineto
          71 callgsubr
          hhcurveto
          endchar
        </CharString>
        <CharString name="brokenbar">
          828 782 115 callsubr
          -109 -1265 115 callsubr
          endchar
        </CharString>
        <CharString name="bullet">
          746 227 rmoveto
          226 186 186 226 226 -186 186 -226 -226 -186 -186 -226 -226 186 -186 226 hvcurveto
          endchar
        </CharString>
        <CharString name="c">
          1206 732 -84 callsubr
          endchar
        </CharString>
        <CharString name="cacute">
          1206 732 -84 callsubr
          -198 564 8 callsubr
        </CharString>
        <CharString name="caron">
          942 -9 callgsubr
          endchar
        </CharString>
        <CharString name="caroncmb">
          939 -9 callgsubr
          endchar
        </CharString>
        <CharString name="caroncmb.short">
          857 1617 -81 callgsubr
          endchar
        </CharString>
        <CharString name="carondotaccentcmb">
          949 -9 callgsubr
          143 406 -104 callgsubr
          endchar
        </CharString>
        <CharString name="carondotaccentcmb.short">
          907 1849 55 callsubr
          53 -272 -5 callgsubr
          endchar
        </CharString>
        <CharString name="ccaron">
          906 -9 callgsubr
          468 -564 -84 callsubr
          endchar
        </CharString>
        <CharString name="ccedilla">
          435 604 -60 callsubr
        </CharString>
        <CharString name="ccedillaacute">
          1193 1628 44 callsubr
          -441 -692 -60 callsubr
        </CharString>
        <CharString name="ccircumflex">
          802 59 callgsubr
          236 -889 -84 callsubr
          endchar
        </CharString>
        <CharString name="cdotaccent">
          850 43 callsubr
          356 -575 -84 callsubr
          endchar
        </CharString>
        <CharString name="cedi">
          424 889 rmoveto
          51 281 143 161 209 12 -217 -1231 rcurveline
          -154 42 -87 132 202 vvcurveto
          62 5 62 8 42 vhcurveto
          933 332 rmoveto
          4 23 2 26 24 vvcurveto
          217 -147 158 -222 33 vhcurveto
          23 132 rlineto
          -103 hlineto
          -22 -126 -303 -7 -200 -215 -66 -390 rlinecurve
          -37 -206 rlineto
          -8 -43 -6 -68 -54 vvcurveto
          -280 132 -184 224 -46 vhcurveto
          -29 -167 rlineto
          103 hlineto
          27 155 rlineto
          19 hlineto
          272 219 175 233 20 hvcurveto
          -137 hlineto
          -173 -36 -134 -105 -186 hhcurveto
          -14 hlineto
          219 1240 rlineto
          158 -26 98 -112 -163 vvcurveto
          -16 -1 -12 -2 -23 vhcurveto
          endchar
        </CharString>
        <CharString name="cedilla">
          459 23 callsubr
        </CharString>
        <CharString name="cedillacmb">
          504 23 callsubr
        </CharString>
        <CharString name="cent">
          1146 465 rmoveto
          -131 hlineto
          -97 -22 -107 -64 -140 hhcurveto
          -190 -107 115 203 34 3 35 7 38 hvcurveto
          22 130 rlineto
          197 33 125 118 175 hhcurveto
          171 94 -86 -157 2 hvcurveto
          132 hlineto
          10 178 -103 132 -172 33 30 169 rcurveline
          -145 hlineto
          -27 -154 -240 -10 -165 -147 -44 -245 rlinecurve
          -27 -154 rlineto
          -7 -47 -5 -53 -41 vvcurveto
          -200 112 -148 185 -44 vhcurveto
          -32 -177 rlineto
          145 hlineto
          29 160 209 8 150 107 30 167 rlinecurve
          endchar
        </CharString>
        <CharString name="checyrillic">
          -48 callsubr
          -84 -478 rlineto
          132 hlineto
          endchar
        </CharString>
        <CharString name="chigreek">
          84 -358 rmoveto
          145 hlineto
          454 597 rlineto
          12 hlineto
          139 -446 rlineto
          -118 37 46 -43 111 hhcurveto
          28 24 2 7 24 hvcurveto
          20 112 rlineto
          -3 -23 -13 -2 -18 hhcurveto
          -67 -33 30 80 -25 hvcurveto
          -161 500 550 719 61 callgsubr
          -441 -580 rlineto
          -12 hlineto
          -130 419 rlineto
          129 -40 -45 42 -108 hhcurveto
          -34 -25 -3 -5 -21 hvcurveto
          -20 -113 rlineto
          4 18 19 1 12 hhcurveto
          75 29 -27 -99 32 hvcurveto
          149 -467 rlineto
          endchar
        </CharString>
        <CharString name="circumflex">
          835 59 callgsubr
          endchar
        </CharString>
        <CharString name="circumflexacutecmb">
          1115 72 callsubr
          -539 -343 -101 callgsubr
          endchar
        </CharString>
        <CharString name="circumflexacutecmb.short">
          1146 1829 rmoveto
          149 hlineto
          281 217 rlineto
          -168 hlineto
          -384 -245 rmoveto
          -146 hlineto
          -65 callgsubr
          endchar
        </CharString>
        <CharString name="circumflexbelowcmb">
          520 -169 -101 callgsubr
          endchar
        </CharString>
        <CharString name="circumflexcmb">
          835 59 callgsubr
          endchar
        </CharString>
        <CharString name="circumflexcmb.short">
          1032 64 callgsubr
          endchar
        </CharString>
        <CharString name="circumflexgravecmb">
          1352 1668 rmoveto
          -155 296 rlineto
          -159 hlineto
          177 -296 rlineto
          -380 -47 -101 callgsubr
          endchar
        </CharString>
        <CharString name="circumflexgravecmb.short">
          1349 1829 51 callgsubr
          -191 -28 rmoveto
          -146 hlineto
          -65 callgsubr
          endchar
        </CharString>
        <CharString name="circumflexhookabovecmb">
          835 59 callgsubr
          233 vmoveto
          -84 callgsubr
          endchar
        </CharString>
        <CharString name="circumflexhookabovecmb.short">
          1024 1801 rmoveto
          -146 hlineto
          -65 callgsubr
          -145 404 -15 callgsubr
        </CharString>
        <CharString name="circumflextildecmb">
          814 1881 -103 callgsubr
          21 -260 -101 callgsubr
          endchar
        </CharString>
        <CharString name="circumflextildecmb.short">
          1024 -4 callsubr
        </CharString>
        <CharString name="colon">
          662 hmoveto
          15 callgsubr
          137 773 rmoveto
          15 callgsubr
          endchar
        </CharString>
        <CharString name="coloncurrency">
          582 -166 rmoveto
          94 175 rlineto
          -23 88 98 -12 109 hhcurveto
          67 62 5 10 58 hvcurveto
          23 128 rlineto
          -11 -53 -68 -6 -72 hhcurveto
          -93 -84 9 17 -73 hvcurveto
          787 1473 rlineto
          -105 hlineto
          -86 -161 -50 16 -81 11 -88 4 rlinecurve
          70 130 rlineto
          -104 hlineto
          -69 -130 rlineto
          -491 -18 -321 -334 -501 vvcurveto
          -166 48 -137 90 -105 vhcurveto
          -200 -374 rlineto
          105 hlineto
          164 307 51 -42 60 -35 69 -26 rlinecurve
          -109 -204 rlineto
          -67 511 rmoveto
          -46 78 -23 96 115 vvcurveto
          373 247 283 352 46 vhcurveto
          -293 -1183 rmoveto
          -70 27 -59 37 -46 47 575 1079 rcurveline
          75 88 -8 -11 62 hvcurveto
          endchar
        </CharString>
        <CharString name="comma">
          511 -335 rmoveto
          301 696 rlineto
          -205 hlineto
          -252 -696 rlineto
          endchar
        </CharString>
        <CharString name="commaaccent">
          638 -494 -44 callgsubr
        </CharString>
        <CharString name="commabelowcmb">
          587 -523 -44 callgsubr
        </CharString>
        <CharString name="copyright">
          760 208 3 callgsubr
          242 507 rmoveto
          102 -87 78 -113 -167 -113 -124 -182 -141 89 -95 132 111 93 72 103 22 vhcurveto
          -102 hlineto
          -45 -19 -47 -31 -50 hhcurveto
          -76 -45 52 86 121 64 85 90 65 39 -27 -54 12 hvcurveto
          endchar
        </CharString>
        <CharString name="cruzeiro">
          1214 117 rmoveto
          -11 -53 -68 -6 -72 hhcurveto
          -49 -48 3 5 -49 hvcurveto
          64 362 rlineto
          173 30 119 117 144 hhcurveto
          32 43 -6 -6 16 hvcurveto
          23 132 rlineto
          5 -20 -25 2 -28 hhcurveto
          -127 -111 -78 -124 -51 hvcurveto
          -12 hlineto
          32 184 rlineto
          -124 hlineto
          -130 -738 rlineto
          -249 66 -126 169 268 vvcurveto
          409 297 300 405 96 112 -12 -16 60 vhcurveto
          28 121 rlineto
          21 -59 -112 13 -115 hhcurveto
          -515 -339 -339 -515 -404 286 -238 485 67 62 5 10 58 hvcurveto
          endchar
        </CharString>
        <CharString name="currency">
          1285 972 rmoveto
          -68 93 -204 -149 -51 56 -70 37 -77 13 rlinecurve
          -78 14 -78 -11 -67 -35 -142 210 rcurveline
          -98 -64 144 -211 -54 -52 -36 -70 -14 -80 rlinecurve
          -14 -80 10 -79 32 -68 -207 -151 rcurveline
          70 -92 204 150 52 -56 70 -38 78 -13 rlinecurve
          78 -13 77 10 66 34 142 -209 rcurveline
          96 63 -141 210 55 54 36 70 14 81 rlinecurve
          14 79 -10 78 -32 71 rrcurveto
          -379 -435 rmoveto
          -153 27 -89 133 28 157 27 158 130 93 153 -26 152 -27 89 -133 -27 -158 -28 -157 -130 -94 -152 27 rrcurveto
          endchar
        </CharString>
        <CharString name="d">
          -93 callgsubr
          endchar
        </CharString>
        <CharString name="dagger">
          829 787 rmoveto
          61 callsubr
          -169 -958 rlineto
          114 hlineto
          endchar
        </CharString>
        <CharString name="daggerdbl">
          1162 280 rmoveto
          21 116 rlineto
          -423 hlineto
          69 391 rlineto
          61 callsubr
          -69 -391 rlineto
          -423 85 callsubr
          423 hlineto
          -79 -451 rlineto
          114 hlineto
          79 451 rlineto
          endchar
        </CharString>
        <CharString name="dblgrave">
          1003 -42 callsubr
          endchar
        </CharString>
        <CharString name="dblgravecmb">
          919 -42 callsubr
          endchar
        </CharString>
        <CharString name="dblgravecmb.short">
          942 -31 callsubr
          endchar
        </CharString>
        <CharString name="dcaron">
          1391 108 callsubr
          -885 -411 rmoveto
          -226 -149 -140 -255 -45 hvcurveto
          -30 -172 rlineto
          -7 -30 -4 -50 -50 vvcurveto
          -264 130 -152 226 137 105 74 131 53 62 callgsubr
          124 hlineto
          65 callsubr
          -130 hlineto
          -116 -653 rlineto
          -6 hlineto
          149 -29 -116 93 -160 hhcurveto
          2 -122 rmoveto
          162 109 -120 -174 -41 -1 -19 -5 -30 hvcurveto
          -28 -158 rlineto
          -214 -38 -109 -111 -179 hhcurveto
          -155 -87 111 201 36 4 38 4 22 hvcurveto
          24 137 rlineto
          225 39 91 97 169 hhcurveto
          endchar
        </CharString>
        <CharString name="dcircumflexbelow">
          -93 callgsubr
          -219 -1142 -101 callgsubr
          endchar
        </CharString>
        <CharString name="dcommaaccent">
          -93 callgsubr
          -152 -1496 -44 callgsubr
        </CharString>
        <CharString name="dcroat">
          1008 431 rmoveto
          -202 -36 -133 -123 -189 hhcurveto
          -167 -103 116 186 38 4 46 4 22 hvcurveto
          24 137 rlineto
          212 37 111 110 179 hhcurveto
          175 128 -136 -188 -13 -1 -17 -5 -30 hvcurveto
          448 787 rmoveto
          -182 hlineto
          23 130 rlineto
          -127 hlineto
          -23 -130 rlineto
          -244 hlineto
          -17 -97 rlineto
          244 hlineto
          -76 -426 rlineto
          -6 hlineto
          147 -28 -146 95 -163 hhcurveto
          -235 -172 -151 -244 -43 hvcurveto
          -30 -172 rlineto
          -5 -29 -6 -58 -53 vvcurveto
          -250 148 -156 238 146 129 82 123 49 62 callgsubr
          124 hlineto
          226 1279 rlineto
          182 hlineto
          endchar
        </CharString>
        <CharString name="ddotaccent">
          -93 callgsubr
          14 334 -104 callgsubr
          endchar
        </CharString>
        <CharString name="ddotbelow">
          -93 callgsubr
          -164 -1413 -104 callgsubr
          endchar
        </CharString>
        <CharString name="decyrillic">
          -6 callgsubr
        </CharString>
        <CharString name="degree">
          837 856 rmoveto
          175 130 128 172 172 -130 128 -175 -175 -130 -128 -172 -172 130 -128 175 hvcurveto
          98 vmoveto
          -115 -85 86 116 116 85 86 115 115 85 -86 -116 -116 -85 -86 -115 hvcurveto
          endchar
        </CharString>
        <CharString name="deltagreek">
          1197 564 rmoveto
          213 -77 129 -238 153 vhcurveto
          -155 99 -44 46 76 vvcurveto
          84 59 44 139 110 126 -40 -70 115 vhcurveto
          21 122 rlineto
          66 -99 -136 38 -147 hhcurveto
          -161 -159 -64 -184 -97 62 -85 124 -73 hvcurveto
          -2 -10 -242 -13 -145 -123 -65 -176 rlinecurve
          -28 -75 -13 -85 -90 vvcurveto
          -291 172 -175 268 229 169 121 203 75 vhcurveto
          27 75 15 86 96 vvcurveto
          -436 341 rmoveto
          176 130 -115 -229 -37 -3 -36 -5 -34 hvcurveto
          -5 -33 -8 -32 -10 -30 rrcurveto
          -161 -56 -125 -99 -162 hhcurveto
          -192 -130 142 198 35 2 33 4 31 hvcurveto
          4 31 6 30 7 28 rrcurveto
          175 47 121 103 199 hhcurveto
          endchar
        </CharString>
        <CharString name="dieresis">
          695 42 callgsubr
          endchar
        </CharString>
        <CharString name="dieresisacutecmb">
          830 72 callsubr
          -394 -634 rmoveto
          -105 callgsubr
          382 hmoveto
          -105 callgsubr
          endchar
        </CharString>
        <CharString name="dieresisacutecmb.short">
          823 1829 rmoveto
          159 hlineto
          69 callgsubr
          -343 -478 rmoveto
          -65 callsubr
          364 hmoveto
          -65 callsubr
          endchar
        </CharString>
        <CharString name="dieresisbelowcmb">
          384 -434 rmoveto
          -105 callgsubr
          382 hmoveto
          -105 callgsubr
          endchar
        </CharString>
        <CharString name="dieresiscaroncmb">
          1004 1668 rmoveto
          329 306 rlineto
          -164 hlineto
          -230 -217 rlineto
          -12 hlineto
          -154 217 rlineto
          -144 hlineto
          221 -306 rlineto
          -155 -338 rmoveto
          -105 callgsubr
          382 hmoveto
          -105 callgsubr
          endchar
        </CharString>
        <CharString name="dieresiscaroncmb.short">
          996 1832 -5 callgsubr
          -108 -264 rmoveto
          -65 callsubr
          364 hmoveto
          -65 callsubr
          endchar
        </CharString>
        <CharString name="dieresiscmb">
          695 1305 rmoveto
          -105 callgsubr
          382 hmoveto
          -105 callgsubr
          endchar
        </CharString>
        <CharString name="dieresiscmb.short">
          82 callgsubr
          382 hmoveto
          -105 callgsubr
          endchar
        </CharString>
        <CharString name="dieresisgravecmb">
          695 18 callgsubr
          endchar
        </CharString>
        <CharString name="dieresisgravecmb.short">
          742 1568 rmoveto
          -65 callsubr
          364 hmoveto
          -65 callsubr
          -267 478 rmoveto
          -173 hlineto
          205 -217 rlineto
          154 hlineto
          endchar
        </CharString>
        <CharString name="dieresismacroncmb">
          1077 1544 rmoveto
          -50 callsubr
        </CharString>
        <CharString name="dieresismacroncmb.short">
          1106 1754 -24 callsubr
          169 258 rmoveto
          -638 hlineto
          -17 -98 rlineto
          638 hlineto
          -516 -160 -24 callsubr
          endchar
        </CharString>
        <CharString name="dieresistonosgreek">
          595 1316 -36 callgsubr
        </CharString>
        <CharString name="divide">
          1221 73 callsubr
          -972 85 callsubr
          558 291 rmoveto
          61 47 46 128 callgsubr
          -46 60 hvcurveto
          -120 -683 rmoveto
          61 47 45 128 callgsubr
          -45 60 hvcurveto
          endchar
        </CharString>
        <CharString name="djecyrillic">
          489 890 rmoveto
          69 390 rlineto
          250 hlineto
          17 97 rlineto
          -250 hlineto
          23 129 58 callsubr
          -23 -129 rlineto
          -177 hlineto
          -17 -97 rlineto
          177 hlineto
          -226 -1280 88 callsubr
          113 638 rlineto
          204 36 139 135 174 hhcurveto
          151 97 -98 -154 -31 -5 -45 -8 -46 hvcurveto
          -107 -603 -13 -72 rlineto
          -126 -23 -71 -56 -138 hhcurveto
          -6 hlineto
          -20 -113 rlineto
          9 hlineto
          221 126 99 198 34 hvcurveto
          12 70 -61 callgsubr
          endchar
        </CharString>
        <CharString name="dlinebelow">
          -93 callgsubr
          145 -1359 -95 callsubr
          endchar
        </CharString>
        <CharString name="dollar">
          805 651 rmoveto
          185 -79 64 -69 -123 vvcurveto
          -170 -143 -119 -205 -2 vhcurveto
          15 732 rmoveto
          -173 74 -61 71 120 vvcurveto
          155 135 111 192 1 vhcurveto
          447 -282 rmoveto
          1 6 2 24 11 vvcurveto
          174 -127 133 -190 41 vhcurveto
          22 124 rlineto
          -114 -39 callgsubr
          -15 hlineto
          -279 -191 -160 -235 -180 98 -112 244 -97 hvcurveto
          5 -2 -103 -587 rlineto
          -152 34 -101 105 134 vvcurveto
          6 1 10 1 17 vhcurveto
          -131 -1 rlineto
          -3 -9 -1 -13 -27 vvcurveto
          -187 150 -147 215 -41 vhcurveto
          -22 -122 rlineto
          114 -20 callgsubr
          10 hlineto
          298 196 168 255 181 -89 100 -253 101 hvcurveto
          -19 7 98 557 rlineto
          124 -33 80 -93 -119 vvcurveto
          -14 0 -7 -1 -2 vhcurveto
          endchar
        </CharString>
        <CharString name="dotaccent">
          883 43 callsubr
          endchar
        </CharString>
        <CharString name="dotaccentcmb">
          883 43 callsubr
          endchar
        </CharString>
        <CharString name="dotaccentcmb.short">
          82 callsubr
          endchar
        </CharString>
        <CharString name="dotbelowcmb">
          13 callsubr
          endchar
        </CharString>
        <CharString name="dotlessi">
          1102 hmoveto
          -88 callsubr
          endchar
        </CharString>
        <CharString name="dotlessj">
          1053 1077 -30 callgsubr
          endchar
        </CharString>
        <CharString name="dotmacroncmb">
          1257 1733 -95 callsubr
          264 -426 -104 callgsubr
          endchar
        </CharString>
        <CharString name="dotmacroncmb.short">
          48 callgsubr
          endchar
        </CharString>
        <CharString name="dzecyrillic">
          -17 callgsubr
          endchar
        </CharString>
        <CharString name="dzhecyrillic">
          1258 112 callgsubr
          -170 -966 rlineto
          -608 hlineto
          170 966 -32 callsubr
          373 50 callgsubr
          124 hlineto
          50 285 rlineto
          373 hlineto
          endchar
        </CharString>
        <CharString name="e">
          -106 callsubr
          endchar
        </CharString>
        <CharString name="eacute">
          892 1296 -72 callgsubr
          261 -1030 -66 callgsubr
        </CharString>
        <CharString name="ebreve">
          -106 callsubr
          -268 992 -74 callsubr
        </CharString>
        <CharString name="ecaron">
          -106 callsubr
          -204 1030 -79 callgsubr
          endchar
        </CharString>
        <CharString name="ecedilla">
          1064 612 -35 callgsubr
        </CharString>
        <CharString name="ecedillabreve">
          1118 -7 callgsubr
          -175 -965 -35 callgsubr
        </CharString>
        <CharString name="ecircumflex">
          -106 callsubr
          -308 1355 -101 callgsubr
          endchar
        </CharString>
        <CharString name="ecircumflexacute">
          -106 callsubr
          -28 1402 19 callgsubr
          -539 -343 -101 callgsubr
          endchar
        </CharString>
        <CharString name="ecircumflexbelow">
          -106 callsubr
          -527 -435 -101 callgsubr
          endchar
        </CharString>
        <CharString name="ecircumflexdotbelow">
          -106 callsubr
          -308 1355 -101 callgsubr
          -332 -2061 -104 callgsubr
          endchar
        </CharString>
        <CharString name="ecircumflexgrave">
          -106 callsubr
          209 1402 rmoveto
          -155 296 rlineto
          -159 hlineto
          177 -296 rlineto
          -380 -47 -101 callgsubr
          endchar
        </CharString>
        <CharString name="ecircumflexhookabove">
          -106 callsubr
          -308 1355 -101 callgsubr
          233 vmoveto
          -84 callgsubr
          endchar
        </CharString>
        <CharString name="ecircumflextilde">
          -106 callsubr
          -329 1615 -103 callgsubr
          21 -260 -101 callgsubr
          endchar
        </CharString>
        <CharString name="ecyrillic">
          -18 callsubr
          endchar
        </CharString>
        <CharString name="edblgrave">
          902 -42 callsubr
          280 -1030 -66 callgsubr
        </CharString>
        <CharString name="edieresis">
          -106 callsubr
          -426 1065 rmoveto
          -105 callgsubr
          382 hmoveto
          -105 callgsubr
          endchar
        </CharString>
        <CharString name="edotaccent">
          -106 callsubr
          -260 1041 -104 callgsubr
          endchar
        </CharString>
        <CharString name="edotbelow">
          -106 callsubr
          -472 -706 -104 callgsubr
          endchar
        </CharString>
        <CharString name="efcyrillic">
          507 -357 rmoveto
          128 hlineto
          62 349 rlineto
          26 hlineto
          298 199 161 283 49 hvcurveto
          14 80 rlineto
          10 55 4 43 38 vvcurveto
          253 -143 179 -262 14 vhcurveto
          62 355 135 callgsubr
          -62 -355 rlineto
          -26 hlineto
          -298 -199 -160 -283 -49 hvcurveto
          -14 -80 rlineto
          -10 -55 -4 -43 -38 vvcurveto
          -252 144 -181 261 -14 vhcurveto
          -258 622 rmoveto
          241 42 146 131 226 hhcurveto
          20 hlineto
          -155 -881 rlineto
          -205 6 -93 133 199 vvcurveto
          37 3 40 7 41 vhcurveto
          568 425 rmoveto
          206 -6 93 -133 -199 vvcurveto
          -37 -3 -40 -7 -41 vhcurveto
          -9 -53 rlineto
          -241 -42 -146 -131 -226 hhcurveto
          -21 hlineto
          endchar
        </CharString>
        <CharString name="egrave">
          -106 callsubr
          -178 1030 rmoveto
          -180 332 rlineto
          -44 callsubr
          endchar
        </CharString>
        <CharString name="ehookabove">
          -106 callsubr
          -425 1211 47 callsubr
          endchar
        </CharString>
        <CharString name="eight">
          822 818 rmoveto
          -165 -116 106 151 160 123 115 171 168 113 -104 -155 -157 -124 -116 -170 hvcurveto
          -113 -728 rmoveto
          -199 -137 120 176 178 147 132 200 198 140 -124 -175 -181 -144 -126 -205 hvcurveto
          541 1021 rmoveto
          216 -169 149 -245 -250 -182 -160 -219 -136 78 -118 130 -63 vhcurveto
          -2 -11 rlineto
          -214 -17 -164 -171 -205 vvcurveto
          -240 196 -169 280 285 201 174 248 168 -104 146 -154 50 vhcurveto
          2 12 rlineto
          177 16 135 150 180 vvcurveto
          endchar
        </CharString>
        <CharString name="einvertedbreve">
          -106 callsubr
          -236 1311 -51 callgsubr
        </CharString>
        <CharString name="elcyrillic">
          659 966 rmoveto
          431 hlineto
          -170 -966 88 callsubr
          190 1077 rlineto
          -37 callsubr
          endchar
        </CharString>
        <CharString name="ellipsis">
          240 49 callgsubr
          402 49 callgsubr
          403 49 callgsubr
          endchar
        </CharString>
        <CharString name="emacron">
          -106 callsubr
          52 1111 -95 callsubr
          endchar
        </CharString>
        <CharString name="emacronacute">
          1178 10 callgsubr
          188 -1402 -66 callgsubr
        </CharString>
        <CharString name="emacrongrave">
          -106 callsubr
          -127 1402 13 callgsubr
        </CharString>
        <CharString name="emcyrillic">
          386 819 rmoveto
          5 hlineto
          200 -733 rlineto
          97 hlineto
          475 733 rlineto
          6 hlineto
          -144 -819 rlineto
          118 hlineto
          190 1077 rlineto
          74 callsubr
          endchar
        </CharString>
        <CharString name="emdash">
          50 callsubr
        </CharString>
        <CharString name="encyrillic">
          35 callsubr
        </CharString>
        <CharString name="endash">
          50 callsubr
        </CharString>
        <CharString name="eogonek">
          876 -410 rmoveto
          35 30 3 7 23 hvcurveto
          18 102 rlineto
          -2 -14 -16 -1 -17 hhcurveto
          -73 -55 48 64 76 36 47 137 107 hvcurveto
          108 84 34 46 19 95 rrcurveto
          -127 hlineto
          -92 -23 -136 -75 -143 hhcurveto
          -196 -117 135 204 21 hvcurveto
          7 66 rlineto
          752 hlineto
          10 76 9 76 rlineto
          252 31 -167 187 -255 hhcurveto
          -264 -183 -156 -255 -37 hvcurveto
          -20 -139 rlineto
          -11 -76 -4 -40 -34 vvcurveto
          -253 157 -160 250 43 51 13 21 36 vhcurveto
          5 -9 rlineto
          -113 -76 -46 -66 -86 vvcurveto
          -106 90 -83 115 vhcurveto
          -83 1389 rmoveto
          186 114 -136 -192 -24 hvcurveto
          -5 -39 rlineto
          -623 hlineto
          13 76 rlineto
          179 31 131 112 177 hhcurveto
          endchar
        </CharString>
        <CharString name="epsilongreek">
          664 -19 -18 callgsubr
          endchar
        </CharString>
        <CharString name="epsilontonosgreek">
          664 -20 -18 callgsubr
          102 1316 -33 callgsubr
          endchar
        </CharString>
        <CharString name="equal">
          1227 366 rmoveto
          20 115 rlineto
          -1058 130 callgsubr
          1134 431 rmoveto
          20 115 rlineto
          -1058 130 callgsubr
          endchar
        </CharString>
        <CharString name="ercyrillic">
          -76 callsubr
          endchar
        </CharString>
        <CharString name="ereversedcyrillic">
          688 -17 rmoveto
          256 172 145 253 45 129 callsubr
          -82 callgsubr
          vhcurveto
          endchar
        </CharString>
        <CharString name="escyrillic">
          1206 732 -84 callsubr
          endchar
        </CharString>
        <CharString name="etagreek">
          376 hmoveto
          -17 callsubr
        </CharString>
        <CharString name="etatonosgreek">
          672 108 callgsubr
          -479 -1628 rmoveto
          -17 callsubr
        </CharString>
        <CharString name="eth">
          992 434 rmoveto
          -215 -36 -125 -126 -178 hhcurveto
          -178 -120 138 206 20 3 36 6 38 hvcurveto
          5 33 rlineto
          205 31 133 128 181 hhcurveto
          179 119 -124 -186 -29 -2 -23 -6 -30 hvcurveto
          366 958 rmoveto
          -309 -104 -27 54 -30 52 -36 50 rlinecurve
          -171 hlineto
          52 -55 46 -68 39 -76 -248 -83 rcurveline
          -18 -102 303 102 rlineto
          55 -136 32 -153 -148 vvcurveto
          -6 1 rlineto
          129 -53 -132 81 -159 hhcurveto
          -242 -178 -160 -257 -46 hvcurveto
          -8 -45 rlineto
          -6 -36 -3 -36 -44 vvcurveto
          -268 163 -178 245 249 166 139 267 71 vhcurveto
          39 159 20 148 136 vvcurveto
          160 -26 147 -54 137 vhcurveto
          254 85 rlineto
          endchar
        </CharString>
        <CharString name="etilde">
          -106 callsubr
          -409 1165 -103 callgsubr
          endchar
        </CharString>
        <CharString name="etildebelow">
          -106 callsubr
          -617 -568 -103 callgsubr
          endchar
        </CharString>
        <CharString name="exclam">
          812 33 callgsubr
          -163 -994 rlineto
          129 hlineto
          189 994 rlineto
          -314 -1456 91 callsubr
        </CharString>
        <CharString name="exclamdown">
          647 -350 rmoveto
          163 994 120 callsubr
          -189 -994 rlineto
          314 1456 93 callsubr
        </CharString>
        <CharString name="f">
          2 callsubr
          endchar
        </CharString>
        <CharString name="fdotaccent">
          2 callsubr
          -218 341 -104 callgsubr
          endchar
        </CharString>
        <CharString name="fi">
          367 hmoveto
          52 callsubr
          624 hlineto
          -170 -966 88 callsubr
          190 1077 rlineto
          -755 hlineto
          21 120 rlineto
          128 22 98 64 172 hhcurveto
          54 74 -8 -12 60 hvcurveto
          21 115 rlineto
          12 -61 -72 8 -57 hhcurveto
          -255 -152 -104 -199 -34 hvcurveto
          -22 -124 104 callsubr
          1069 1272 24 callgsubr
        </CharString>
        <CharString name="figuredash">
          50 callsubr
        </CharString>
        <CharString name="five">
          490 808 rmoveto
          129 512 rlineto
          632 hlineto
          21 123 rlineto
          -754 hlineto
          -188 -772 rlineto
          130 hlineto
          85 63 110 50 125 hhcurveto
          187 128 -132 -194 -224 -156 -160 -218 -177 -138 119 153 hvcurveto
          -126 -9 hlineto
          -227 183 -162 256 294 216 216 296 261 -170 181 -247 -120 -107 -43 -73 -61 vhcurveto
          endchar
        </CharString>
        <CharString name="fl">
          537 966 rmoveto
          394 -20 callgsubr
          -394 hlineto
          12 66 rlineto
          188 34 71 58 236 hhcurveto
          326 hlineto
          -245 -1389 88 callsubr
          264 1497 rlineto
          -473 hlineto
          -294 -137 -101 -228 -40 hvcurveto
          -16 -91 104 callsubr
          131 hlineto
          endchar
        </CharString>
        <CharString name="florin">
          1422 1463 rmoveto
          15 -47 -80 12 -58 hhcurveto
          -218 -125 -100 -229 -69 hvcurveto
          -86 -286 rlineto
          -342 hlineto
          -20 -113 rlineto
          328 hlineto
          -132 -439 rlineto
          -158 -48 -84 -69 -140 hhcurveto
          -66 -50 7 15 -43 hvcurveto
          -21 -19 callgsubr
          -14 40 80 -12 55 hhcurveto
          212 122 99 229 68 hvcurveto
          140 460 rlineto
          382 hlineto
          20 113 rlineto
          -368 hlineto
          81 265 rlineto
          158 48 81 68 139 hhcurveto
          72 68 -8 -13 40 hvcurveto
          endchar
        </CharString>
        <CharString name="four">
          822 hmoveto
          123 hlineto
          56 319 rlineto
          231 hlineto
          22 122 rlineto
          -229 hlineto
          75 429 58 callsubr
          -76 -434 rlineto
          -509 hlineto
          2 10 680 997 rlineto
          -149 hlineto
          -688 -1019 -19 -105 rlineto
          662 hlineto
          endchar
        </CharString>
        <CharString name="fraction">
          1520 1443 30 callsubr
        </CharString>
        <CharString name="franc">
          1330 1319 rmoveto
          21 124 rlineto
          -829 hlineto
          -187 -1062 rlineto
          -225 hlineto
          -19 -119 rlineto
          223 hlineto
          -46 -262 rlineto
          137 hlineto
          46 262 rlineto
          267 hlineto
          21 119 rlineto
          -267 hlineto
          123 callgsubr
          634 hlineto
          22 122 rlineto
          -634 hlineto
          96 542 rlineto
          endchar
        </CharString>
        <CharString name="g">
          -101 callsubr
          endchar
        </CharString>
        <CharString name="gacute">
          824 14 callgsubr
          -132 hlineto
          -38 -225 rlineto
          -10 hlineto
          154 -28 -125 89 -187 hhcurveto
          -229 -174 -159 -251 -45 hvcurveto
          -20 -111 rlineto
          -7 -37 -6 -72 -44 vvcurveto
          -241 163 -178 221 149 124 73 117 50 vhcurveto
          10 hlineto
          -30 -168 rlineto
          -210 -38 -113 -104 -191 hhcurveto
          -159 -121 86 113 hvcurveto
          17 -131 -16 vlineto
          -180 170 -133 230 272 160 138 273 48 vhcurveto
          -59 429 rmoveto
          -188 -33 -135 -130 -163 hhcurveto
          -182 -111 122 201 26 6 61 6 34 hvcurveto
          15 81 rlineto
          204 37 126 126 165 hhcurveto
          178 123 -130 -190 -23 -4 -37 -6 -34 hvcurveto
          endchar
        </CharString>
        <CharString name="gammagreek">
          608 -339 rmoveto
          58 328 rlineto
          444 440 113 278 271 vvcurveto
          47 -2 27 -5 25 vhcurveto
          -131 hlineto
          4 -21 4 -34 -53 vvcurveto
          -282 -159 -238 -287 -314 127 callsubr
          188 -1057 -64 -359 rlineto
          endchar
        </CharString>
        <CharString name="gbreve">
          -101 callsubr
          217 1661 -74 callsubr
        </CharString>
        <CharString name="gcaron">
          -101 callsubr
          281 1699 -79 callgsubr
          endchar
        </CharString>
        <CharString name="gcircumflex">
          -101 callsubr
          177 2024 -101 callgsubr
          endchar
        </CharString>
        <CharString name="gcommaaccent">
          -101 callsubr
          278 1655 -44 callgsubr
        </CharString>
        <CharString name="gdotaccent">
          -101 callsubr
          225 1710 -104 callgsubr
          endchar
        </CharString>
        <CharString name="gecyrillic">
          1279 1077 rmoveto
          -950 -24 callgsubr
          endchar
        </CharString>
        <CharString name="germandbls">
          358 hmoveto
          202 1165 rlineto
          141 24 95 76 149 hhcurveto
          159 106 -100 -150 -175 -131 -114 -201 hvcurveto
          -57 hlineto
          -25 -138 rlineto
          58 hlineto
          200 143 -133 -186 -173 -124 -118 -183 -77 -99 21 27 -51 hvcurveto
          -21 -119 rlineto
          -30 76 97 -19 77 hhcurveto
          254 183 174 241 201 -115 144 -185 31 hvcurveto
          1 5 rlineto
          176 27 133 157 181 vvcurveto
          215 -163 152 -229 -214 -148 -117 -196 -34 vhcurveto
          -210 -1190 rlineto
          endchar
        </CharString>
        <CharString name="geupturncyrillic">
          1327 1351 rmoveto
          -126 hlineto
          -49 -274 rlineto
          -823 -24 callgsubr
          61 344 rlineto
          -1 hlineto
          endchar
        </CharString>
        <CharString name="gjecyrillic">
          1290 1628 44 callsubr
          306 -219 rmoveto
          -950 -24 callgsubr
          endchar
        </CharString>
        <CharString name="glyph1">
          endchar
        </CharString>
        <CharString name="gmacron">
          -101 callsubr
          537 1780 -95 callsubr
          endchar
        </CharString>
        <CharString name="grave">
          1065 100 callsubr
          endchar
        </CharString>
        <CharString name="gravecmb">
          1065 100 callsubr
          endchar
        </CharString>
        <CharString name="gravecmb.short">
          753 -25 callsubr
          endchar
        </CharString>
        <CharString name="greater">
          254 218 rmoveto
          -25 -144 924 513 18 104 -742 513 -23 -128 630 -421 -2 -16 rlineto
          endchar
        </CharString>
        <CharString name="greaterequal">
          1143 144 rmoveto
          20 110 rlineto
          -970 hlineto
          -20 -110 rlineto
          77 426 rmoveto
          -24 -132 1024 308 20 115 -915 309 -21 -121 746 -232 -2 -15 rlineto
          endchar
        </CharString>
        <CharString name="greekquestionmark">
          41 callsubr
        </CharString>
        <CharString name="guarani">
          356 487 rmoveto
          45 6 61 10 61 vhcurveto
          42 236 53 292 148 157 230 7 rlinecurve
          -219 -1242 rlineto
          -171 33 -99 141 209 vvcurveto
          848 -113 rmoveto
          61 345 rlineto
          -427 hlineto
          109 618 rlineto
          141 -31 83 -109 -156 vvcurveto
          -10 0 -2 -2 -37 vhcurveto
          133 hlineto
          4 38 1 18 14 vvcurveto
          217 -127 152 -211 34 vhcurveto
          24 134 rlineto
          -103 hlineto
          -22 -126 -314 -3 -209 -201 -66 -363 rlinecurve
          -46 -250 rlineto
          -9 -53 -6 -67 -55 vvcurveto
          -278 145 -190 241 -38 vhcurveto
          -29 -162 rlineto
          103 hlineto
          27 155 260 4 197 160 42 242 rlinecurve
          -97 223 rmoveto
          -36 -203 -31 -177 -131 -113 -181 -8 rlinecurve
          88 501 rlineto
          endchar
        </CharString>
        <CharString name="guillemotleft">
          410 636 21 callgsubr
          454 2 21 callgsubr
          endchar
        </CharString>
        <CharString name="guillemotright">
          1081 642 21 callsubr
          -454 -2 21 callsubr
          endchar
        </CharString>
        <CharString name="guilsingleright">
          850 642 21 callsubr
          endchar
        </CharString>
        <CharString name="guilsinglleft">
          641 636 21 callgsubr
          endchar
        </CharString>
        <CharString name="h">
          207 hmoveto
          -94 callsubr
          -10 hlineto
          109 616 58 callsubr
          endchar
        </CharString>
        <CharString name="hacyrillic">
          724 440 rmoveto
          225 -440 rlineto
          139 hlineto
          -286 547 -45 callgsubr
          endchar
        </CharString>
        <CharString name="hardsigncyrillic">
          536 110 callsubr
          221 105 callsubr
          -139 599 rmoveto
          65 367 rlineto
          -427 -39 callgsubr
          296 hlineto
          -170 -966 rlineto
          387 93 callgsubr
        </CharString>
        <CharString name="hbar">
          489 890 rmoveto
          69 390 rlineto
          250 hlineto
          17 97 rlineto
          -250 hlineto
          23 129 58 callsubr
          -23 -129 rlineto
          -177 hlineto
          -17 -97 rlineto
          177 hlineto
          -226 -1280 rlineto
          -94 callsubr
          endchar
        </CharString>
        <CharString name="hbrevebelow">
          207 hmoveto
          -94 callsubr
          -10 hlineto
          109 616 58 callsubr
          113 -1978 -74 callsubr
        </CharString>
        <CharString name="hcaron">
          207 hmoveto
          -94 callsubr
          -10 hlineto
          109 616 58 callsubr
          33 174 -81 callgsubr
          endchar
        </CharString>
        <CharString name="hcedilla">
          207 -1 rmoveto
          -25 -142 -14 -78 rlineto
          22 hlineto
          101 48 -27 -57 -50 -41 -27 -74 -34 -73 12 12 -38 hvcurveto
          -17 -95 rlineto
          -18 48 62 -11 52 hhcurveto
          134 102 82 107 81 -50 51 -96 17 hvcurveto
          25 144 112 638 rlineto
          203 36 139 136 174 hhcurveto
          151 97 -98 -154 -32 -4 -42 -9 -48 hvcurveto
          -106 -603 rlineto
          130 hlineto
          113 callgsubr
          14 84 4 39 34 -47 callgsubr
          109 616 rlineto
          -125 97 callsubr
          endchar
        </CharString>
        <CharString name="hcircumflex">
          207 hmoveto
          -94 callsubr
          -10 hlineto
          109 616 58 callsubr
          208 471 -73 callsubr
          endchar
        </CharString>
        <CharString name="hdieresis">
          207 hmoveto
          -94 callsubr
          -10 hlineto
          109 616 58 callsubr
          -69 223 rmoveto
          -105 callgsubr
          382 hmoveto
          -105 callgsubr
          endchar
        </CharString>
        <CharString name="hdotaccent">
          207 hmoveto
          -94 callsubr
          -10 hlineto
          109 616 58 callsubr
          533 -199 -104 callgsubr
          endchar
        </CharString>
        <CharString name="hdotbelow">
          207 hmoveto
          -94 callsubr
          -10 hlineto
          109 616 58 callsubr
          102 -1946 -104 callgsubr
          endchar
        </CharString>
        <CharString name="hlinebelow">
          207 hmoveto
          -94 callsubr
          -10 hlineto
          109 616 58 callsubr
          411 -1892 -95 callsubr
          endchar
        </CharString>
        <CharString name="hookabovecmb">
          718 1477 47 callsubr
          endchar
        </CharString>
        <CharString name="hookabovecmb.short">
          783 1808 -56 callgsubr
          endchar
        </CharString>
        <CharString name="horncmb">
          633 996 rmoveto
          -19 24 45 -11 36 hhcurveto
          140 95 92 150 hvcurveto
          177 -122 -142 vlineto
          -120 -44 -49 -91 -29 -36 10 20 -18 vhcurveto
          endchar
        </CharString>
        <CharString name="hryvnia">
          974 320 rmoveto
          -137 -35 -115 -80 -162 hhcurveto
          -145 -106 82 111 100 52 81 103 58 hvcurveto
          671 103 callsubr
          -1014 hlineto
          -17 -98 rlineto
          202 hlineto
          -2 -12 rlineto
          -90 -53 -58 -102 -106 vvcurveto
          -172 148 -112 226 239 169 123 211 49 vhcurveto
          178 489 rmoveto
          17 98 rlineto
          -203 hlineto
          2 12 rlineto
          90 53 58 102 106 vvcurveto
          172 -148 112 -226 -239 -169 -123 -211 -49 vhcurveto
          134 hlineto
          137 35 115 80 162 hhcurveto
          145 106 -82 -111 -100 -52 -81 -103 -58 hvcurveto
          -671 hlineto
          -18 -106 rlineto
          endchar
        </CharString>
        <CharString name="hungarumlaut">
          839 1296 -16 callgsubr
        </CharString>
        <CharString name="hungarumlautcmb">
          839 1296 -16 callgsubr
        </CharString>
        <CharString name="hungarumlautcmb.short">
          1056 1617 7 callsubr
          -675 -297 7 callsubr
          endchar
        </CharString>
        <CharString name="hyphen">
          1265 73 callsubr
          -1058 85 callsubr
          endchar
        </CharString>
        <CharString name="i">
          916 1362 rmoveto
          -46 callgsubr
          186 -1362 53 callgsubr
        </CharString>
        <CharString name="iacute">
          943 1296 -72 callgsubr
          316 48 callsubr
        </CharString>
        <CharString name="iacyrillic">
          1012 966 -59 callgsubr
        </CharString>
        <CharString name="ibreve">
          1102 hmoveto
          -88 callsubr
          686 31 callsubr
        </CharString>
        <CharString name="icaron">
          1102 hmoveto
          -88 callsubr
          750 -9 callgsubr
          endchar
        </CharString>
        <CharString name="icircumflex">
          1102 hmoveto
          -88 callsubr
          646 59 callgsubr
          endchar
        </CharString>
        <CharString name="icyrillic">
          916 1362 rmoveto
          -46 callgsubr
          186 -1362 53 callgsubr
        </CharString>
        <CharString name="idblgrave">
          953 -42 callsubr
          335 48 callsubr
        </CharString>
        <CharString name="idieresis">
          1102 hmoveto
          -88 callsubr
          506 1320 rmoveto
          -105 callgsubr
          382 hmoveto
          -105 callgsubr
          endchar
        </CharString>
        <CharString name="idieresisacute">
          1102 hmoveto
          -88 callsubr
          641 72 callsubr
          -394 -634 rmoveto
          -105 callgsubr
          382 hmoveto
          -105 callgsubr
          endchar
        </CharString>
        <CharString name="idotaccent">
          1102 hmoveto
          -88 callsubr
          694 43 callsubr
          endchar
        </CharString>
        <CharString name="idotbelow">
          916 1362 rmoveto
          -46 callgsubr
          186 -1362 rmoveto
          -88 callsubr
          376 -30 callsubr
          endchar
        </CharString>
        <CharString name="iecyrillic">
          -106 callsubr
          endchar
        </CharString>
        <CharString name="igrave">
          1102 hmoveto
          -88 callsubr
          776 100 callsubr
          endchar
        </CharString>
        <CharString name="ihookabove">
          1102 hmoveto
          -88 callsubr
          529 1477 47 callsubr
          endchar
        </CharString>
</ttFont>
